<svg xmlns="http://www.w3.org/2000/svg" viewBox="0 0 511.999 511.999"><g fill="#ffd997"><path d="M315.478 464.425V412.28c38.461-21.1 64.466-61.897 64.466-108.643v-70.434c0-10.193-5.268-19.214-13.214-24.475a29.121 29.121 0 00-16.119-4.858h-71.886c-16.128 0-29.333 13.205-29.333 29.334v29.964c0 16.133-13.205 29.333-29.336 29.333-16.121 0-29.332-13.212-29.332-29.333V84.05c0-16.135-13.197-29.335-29.335-29.335-16.132 0-29.334 13.214-29.334 29.335v219.589c0 37.549 16.925 71.342 43.52 94.121V502h139.902v-37.575h.001z"/><path d="M220.056 292.501c16.131 0 29.336-13.2 29.336-29.333v-92.594c0-16.134-13.198-29.332-29.336-29.332-16.134 0-29.332 13.208-29.332 29.332v92.594c0 16.122 13.211 29.333 29.332 29.333z"/><path d="M249.392 233.204c0-16.129 13.205-29.334 29.333-29.334h29.335v-33.294c0-16.136-13.199-29.336-29.333-29.336s-29.335 13.206-29.335 29.334v62.63zm58.668-62.628v33.294h42.551a29.13 29.13 0 0116.119 4.858V39.335C366.73 23.2 353.53 10 337.394 10c-16.131 0-29.334 13.21-29.334 29.335v131.241z"/></g><path d="M376.73 203.828V39.335C376.73 17.646 359.084 0 337.396 0c-21.689 0-39.334 17.646-39.334 39.335v97.005a39.085 39.085 0 00-19.335-5.101c-11.649 0-22.126 5.094-29.335 13.166-7.209-8.071-17.688-13.165-29.336-13.165a39.075 39.075 0 00-19.332 5.099V84.05c0-21.689-17.645-39.335-39.335-39.335-21.688 0-39.334 17.646-39.334 39.335v219.589c0 38.081 16.418 73.651 43.521 98.588v99.772c0 5.523 4.477 10 10 10h139.902c5.523 0 10-4.477 10-10V418.03c39.908-24.261 64.466-67.544 64.466-114.392v-70.437c0-11.67-5.115-22.164-13.214-29.373zM318.062 39.335c0-10.661 8.674-19.335 19.334-19.335s19.334 8.674 19.334 19.335v155.013a39.452 39.452 0 00-6.119-.479h-32.549V39.335zM278.727 151.24c10.661 0 19.335 8.673 19.335 19.334v23.296h-19.337a39.074 39.074 0 00-19.333 5.1v-28.358l.002-.038-.001-.025c.015-10.649 8.681-19.309 19.334-19.309zm-58.669.002c10.652 0 19.32 8.659 19.334 19.307v62.655l.002.077v29.887c0 10.661-8.676 19.333-19.338 19.333-10.66 0-19.332-8.673-19.332-19.333v-92.594c0-10.66 8.674-19.332 19.334-19.332zm90.671 252.237c-.02.011-.038.023-.058.033l-.002.001-.009.005c-.283.156-.558.326-.823.507-.119.081-.228.171-.344.257-.142.106-.286.209-.422.323-.148.124-.286.256-.426.387-.094.088-.191.172-.281.264-.143.144-.273.295-.406.446-.08.092-.164.181-.241.277-.119.146-.228.299-.337.451-.082.113-.166.224-.244.34-.089.136-.169.275-.252.415-.085.144-.172.287-.25.435-.063.119-.117.24-.174.361-.084.175-.168.349-.24.529-.045.107-.08.218-.12.327-.071.195-.144.389-.202.588-.035.117-.061.236-.092.354-.049.192-.101.383-.139.579-.032.165-.052.333-.076.5-.021.15-.049.298-.064.451-.03.298-.044.599-.046.9 0 .024-.004.047-.004.071v79.718H185.575v-17.573h41.035c5.523 0 10-4.477 10-10s-4.477-10-10-10h-41.035v-36.989a133.66 133.66 0 0024.717 12.071 9.966 9.966 0 003.434.611c4.078 0 7.91-2.515 9.393-6.568 1.896-5.187-.771-10.929-5.957-12.826-44.924-16.428-75.107-59.463-75.107-107.086V84.05c0-10.662 8.674-19.335 19.336-19.335 10.661 0 19.333 8.674 19.333 19.335v179.118c0 21.149 16.781 38.446 37.727 39.293a109.01 109.01 0 00-4.566 7.915c-2.549 4.9-.643 10.938 4.257 13.486a10 10 0 0013.486-4.257c15.102-29.033 44.813-47.068 77.542-47.068h12.109c5.523 0 10-4.477 10-10s-4.477-10-10-10h-42.554c-10.648 0-19.311-8.653-19.331-19.297v-.037l-.002-.021c.011-10.651 8.679-19.313 19.333-19.313h71.886c3.85 0 7.431 1.144 10.447 3.09.141.097.287.185.434.274 5.098 3.484 8.452 9.34 8.452 15.967v70.437c0 41.525-22.689 79.775-59.215 99.842z"/><path d="M215.394 332.09c-5.423-1.073-10.68 2.445-11.755 7.862l-.049.257c-1.034 5.425 2.526 10.661 7.952 11.694.633.121 1.262.179 1.883.179 4.705 0 8.898-3.338 9.811-8.131l.02-.106c1.075-5.417-2.445-10.68-7.862-11.755zm40.184 122.337h-.238c-5.522 0-10 4.477-10 10s4.478 10 10 10h.238c5.522 0 10-4.477 10-10s-4.477-10-10-10z"/></svg>