<svg xmlns="http://www.w3.org/2000/svg" width="98" height="104"><path fill="#ffe5e1" d="M97.662 66.75l-61.397 37.318v-71.37z"/><path fill="#139871" d="M68.634 71.695h-4.68a1.56 1.56 0 0 1-1.56-1.56V62.33h-13.84l.902.903c.61.61.61 1.598 0 2.208l-8.914 8.92a1.56 1.56 0 0 1-2.206 0L26.313 62.33H10.912a4.682 4.682 0 0 1-4.68-4.684v-15.41L.447 36.45a1.562 1.562 0 0 1 0-2.207l5.783-5.787V17.061a4.682 4.682 0 0 1 4.68-4.683h36.567L58.608 1.24a4.72 4.72 0 0 1 6.52 0l2.154 2.16a4.612 4.612 0 0 1 .003 6.52l-.003.003-2.454 2.456h3.805a6.242 6.242 0 0 1 6.24 6.243v46.83a6.242 6.242 0 0 1-6.24 6.244zM9.352 57.645a1.56 1.56 0 0 0 1.56 1.562h12.28L9.353 45.358zM3.757 35.347L39.44 71.049l6.709-6.712-4.256-4.258-3.356 3.357-2.206-2.207 3.356-3.358-4.037-4.04-3.356 3.358-2.206-2.207 3.355-3.358-4.032-4.035-3.354 3.356-2.206-2.207 3.354-3.356-4.034-4.037-3.354 3.357-2.207-2.208 3.354-3.356-4.036-4.039-3.356 3.358-2.206-2.207 3.356-3.358-4.256-4.259zm34.437-9.265l4.264 4.267 17.203-17.214-4.263-4.266zm-1.52 2.893l-1.45 4.35 4.346-1.451zm28.405-21.26a1.492 1.492 0 0 0 0-2.11l-2.157-2.156a1.523 1.523 0 0 0-2.107 0l-3.21 3.213 4.263 4.266zm6.675 10.907a3.12 3.12 0 0 0-3.12-3.122H61.71L43.561 33.66a1.534 1.534 0 0 1-.623.362l.006.02-.572.191h13.782v3.122H32.753a1.561 1.561 0 0 1-1.48-2.055l3.235-9.71.015.005c.074-.224.184-.438.362-.616l9.473-9.479H10.912a1.56 1.56 0 0 0-1.56 1.562v8.273l.01-.01a1.56 1.56 0 0 1 2.207 0l33.864 33.883h23.201c1.143 0 2.2.33 3.12.866zm-3.12 43.709h-3.12v6.244h3.12a3.121 3.121 0 0 0 3.12-3.123 3.12 3.12 0 0 0-3.12-3.121zm-3.12-28.098h3.12v3.122h-3.12zm-6.24 0h3.12v3.122h-3.12z"/></svg>