<svg xmlns="http://www.w3.org/2000/svg" width="103" height="99"><path fill="#ffe5e1" d="M77.427 36.965l22.72 22.72c3.69 3.69 3.69 9.674 0 13.365l-22.72 22.72a9.449 9.449 0 0 1-13.365 0l-22.72-22.72a9.45 9.45 0 0 1 0-13.364l22.72-22.72a9.45 9.45 0 0 1 13.365 0z"/><path fill="#139871" d="M72.491 55.868c0 9.34-7.615 16.94-16.976 16.94-8.699 0-15.88-6.566-16.854-14.99H.89a.925.925 0 0 1-.926-.923v-12.11c0-6.261 13.211-11.063 19.61-13.02v-1.131c-5.112-2.55-8.381-8.164-8.381-14.486 0-8.753 6.35-15.875 14.156-15.875 7.808 0 14.16 7.122 14.16 15.875 0 6.32-3.27 11.934-8.38 14.486v1.133c4.81 1.472 13.462 4.553 17.464 8.651a16.894 16.894 0 0 1 6.923-1.488c9.361 0 16.976 7.599 16.976 16.938zm-70.395.103a.924.924 0 0 1-.282-.282v.282zM22 27.828l.544.212c.356.138.59.48.59.86v4.835a.924.924 0 0 1-.675.89l-.621.174c-.671.19-1.345.398-2.02.61l5.274 6.43 5.895-6.395c-.71-.226-1.42-.444-2.126-.645l-.62-.175a.924.924 0 0 1-.672-.889V28.9c0-.38.233-.722.589-.86l.544-.212c4.335-1.687 7.247-6.38 7.247-11.68 0-6.795-4.756-12.324-10.601-12.324-5.844 0-10.598 5.529-10.598 12.324 0 5.3 2.914 9.993 7.25 11.68zm7.42 5.12v.089c.023.005.051.015.087.025a1.03 1.03 0 0 1-.087-.114zm.02-3.425l-.02.008v.022l.02-.03zm-8.247 3.54l.089-.027v-.092a.888.888 0 0 1-.09.118zm.089-3.509v-.023l-.022-.008.022.031zM3.52 54.268h35.1c.464-4.91 3.044-9.204 6.812-11.994-2.287-1.896-6.562-4.01-11.257-5.74l-8.015 8.697a1.547 1.547 0 0 1-1.136.497l-.045-.001a1.543 1.543 0 0 1-1.149-.564l-7.128-8.692C9.68 39.038 3.52 42.481 3.52 44.786zm65.885 1.6c0-7.642-6.23-13.859-13.89-13.859-7.659 0-13.889 6.217-13.889 13.86 0 7.641 6.23 13.858 13.89 13.858 7.659 0 13.889-6.217 13.889-13.859zm-5.184-3.712c.273.351.507.819.467 1.326-.04.506-.353 1.05-.665 1.206l-8.208 7.391-.43.117c-.273.038-.703.155-.937.076-.156.078-.39 0-.508-.04-.234-.077-.546-.312-.74-.507l-5.5-4.564a1.954 1.954 0 0 1-.545-1.48c.157-.469.314-.936.705-1.325a2.269 2.269 0 0 1 1.445-.427c.468.156.936.313 1.326.703l4.096 3.317 6.683-5.952c.352-.272.82-.505 1.328-.466.547-.077 1.093.235 1.483.625z"/></svg>