<svg xmlns="http://www.w3.org/2000/svg" width="89" height="89" viewBox="0 0 89 89"><defs><clipPath id="e9f3a"><path fill="#fff" d="M44.297 0C68.71 0 88.5 19.79 88.5 44.203c0 24.413-19.79 44.203-44.203 44.203-24.413 0-44.203-19.79-44.203-44.203C.094 19.79 19.884 0 44.297 0z"/></clipPath><clipPath id="e9f3b"><path fill="#fff" d="M44.844 29.312c8.06 0 14.593 6.54 14.593 14.61 0 8.068-6.533 14.61-14.593 14.61-8.06 0-14.594-6.542-14.594-14.61 0-8.07 6.534-14.61 14.594-14.61z"/></clipPath></defs><g><g><path fill="none" stroke="#ffdad4" stroke-dasharray="8 4" stroke-miterlimit="50" stroke-width="4" d="M44.297 0C68.71 0 88.5 19.79 88.5 44.203c0 24.413-19.79 44.203-44.203 44.203-24.413 0-44.203-19.79-44.203-44.203C.094 19.79 19.884 0 44.297 0z" clip-path="url(&quot;#e9f3a&quot;)"/></g><g><path fill="#fff" d="M44.844 29.312c8.06 0 14.593 6.54 14.593 14.61 0 8.068-6.533 14.61-14.593 14.61-8.06 0-14.594-6.542-14.594-14.61 0-8.07 6.534-14.61 14.594-14.61z"/><path fill="none" stroke="#139871" stroke-miterlimit="50" stroke-width="12" d="M44.844 29.312c8.06 0 14.593 6.54 14.593 14.61 0 8.068-6.533 14.61-14.593 14.61-8.06 0-14.594-6.542-14.594-14.61 0-8.07 6.534-14.61 14.594-14.61z" clip-path="url(&quot;#e9f3b&quot;)"/></g></g></svg>