<svg xmlns="http://www.w3.org/2000/svg" width="23" height="23" viewBox="0 0 23 23"><defs><clipPath id="yplga"><path fill="#fff" d="M11.203.187c6.205 0 11.235 5.03 11.235 11.235 0 6.204-5.03 11.234-11.235 11.234C5 22.656-.03 17.626-.03 11.422-.031 5.217 4.999.187 11.203.187z"/></clipPath></defs><g><g><path fill="#fff" d="M11.203.187c6.205 0 11.235 5.03 11.235 11.235 0 6.204-5.03 11.234-11.235 11.234C5 22.656-.03 17.626-.03 11.422-.031 5.217 4.999.187 11.203.187z"/><path fill="none" stroke="#139871" stroke-miterlimit="50" stroke-width="12" d="M11.203.187c6.205 0 11.235 5.03 11.235 11.235 0 6.204-5.03 11.234-11.235 11.234C5 22.656-.03 17.626-.03 11.422-.031 5.217 4.999.187 11.203.187z" clip-path="url(&quot;#yplga&quot;)"/></g></g></svg>