<svg xmlns="http://www.w3.org/2000/svg" width="190" height="190" viewBox="0 0 190 190"><g><g><path fill="#fff" d="M95 .566c52.097 0 94.331 42.234 94.331 94.332 0 52.098-42.234 94.332-94.331 94.332-52.098 0-94.332-42.234-94.332-94.332C.668 42.8 42.902.566 95 .566z"/></g><g><path fill="#75ba97" d="M135.965 64.63a1.976 1.976 0 0 0-.53-.394 1.171 1.171 0 0 0-.53-.13 55.702 55.702 0 0 0-11.275 5.432 37.31 37.31 0 0 0-9.218 8.183c-2.607 3.228-4.73 6.808-6.366 10.736-1.636 3.928-2.454 8.292-2.454 13.093 0 4.102.686 7.768 2.056 10.998 1.372 3.228 3.096 5.912 5.173 8.052 2.078 2.138 4.466 3.751 7.162 4.844 2.698 1.09 5.328 1.637 7.892 1.637 1.591 0 3.073-.219 4.443-.654 1.372-.438 2.653-1.202 3.846-2.292a10.967 10.967 0 0 0 2.72-3.797c.619-1.44.927-3.034.927-4.78 0-2.007-.308-3.403-.928-4.189-.617-.785-1.502-1.79-2.652-3.011-5.217 0-9.04-1.485-11.473-4.451-2.431-2.968-3.648-6.677-3.648-11.129 0-5.064 1.526-9.23 4.576-12.504 3.05-3.273 7.229-6.35 12.534-9.23.53-.176.62-.611.265-1.31zm-48.279 0a1.976 1.976 0 0 0-.53-.394 1.174 1.174 0 0 0-.53-.13 58.463 58.463 0 0 0-11.01 5.432c-3.535 2.226-6.718 4.952-9.55 8.183a36.491 36.491 0 0 0-6.564 10.736c-1.547 3.928-2.322 8.292-2.322 13.093 0 4.102.686 7.768 2.056 10.998 1.372 3.228 3.096 5.912 5.173 8.052a20.64 20.64 0 0 0 7.228 4.844c2.742 1.09 5.351 1.637 7.826 1.637 3.096 0 5.881-.982 8.356-2.946 2.476-1.964 3.714-4.824 3.714-8.577 0-2.007-.332-3.403-.995-4.189-.663-.785-1.525-1.79-2.587-3.011-5.216 0-9.062-1.485-11.539-4.451-2.474-2.969-3.714-6.677-3.714-11.129 0-5.064 1.549-9.23 4.643-12.504 3.096-3.273 7.251-6.35 12.467-9.23.531-.176.62-.611.266-1.31z"/></g></g></svg>