<svg xmlns="http://www.w3.org/2000/svg" width="106" height="115"><path fill="#ffe5e1" d="M69.531 42.343c20.038 0 36.281 16.244 36.281 36.282 0 20.037-16.243 36.281-36.28 36.281-20.038 0-36.282-16.244-36.282-36.281 0-20.038 16.244-36.282 36.281-36.282z"/><path fill="#139871" d="M89.12 83.753c-.225.293-.573.454-.982.454H67.999c-.805 0-1.603-.627-1.818-1.428L60.185 60.39c-.112-.416-.043-.824.187-1.124.225-.292.573-.454.982-.454h20.139c.806 0 1.605.628 1.818 1.428l5.996 22.387c.112.416.043.826-.188 1.125zM80.706 61.82h-17.11l5.19 19.379h17.112zm2.866 16.51h-7.318l-.754-2.822h7.314zm-16.225-8.045H81.47l.757 2.822H68.105zm-1.399-5.223h14.123l.757 2.822H66.706zm-37.76-12.6h56.67v2.915h-56.67zM38.61 19.58c4.015-3.381 9.86-4.27 12.392-4.27h.39c2.776 0 8.51.898 12.39 4.268 4.27 3.726 4.32 9.665 4.32 9.915 0 4.887-3.196 6.534-5.028 6.757-.694.182-1.597.246-2.498.246-1.392 0-2.778-.15-3.376-.243-.667-.111-2.575-.27-3.968-.385a83.627 83.627 0 0 1-2.033-.182h-.1c-.577 0-4.784.38-5.886.564-1.055.163-4.08.461-5.898-.004-1.814-.25-5.022-1.94-5.022-6.753 0-.25.049-6.19 4.317-9.913zm1.174 13.67a1.9 1.9 0 0 1 .238.047c1.002.286 3.42.159 4.71-.04 1.187-.198 5.585-.603 6.367-.603.072 0 .34.005.41.015.256.037 1.044.1 1.974.178 1.606.133 3.426.283 4.197.413 1.473.225 3.845.296 4.663.047.106-.033.217-.055.329-.063.38-.043 2.4-.435 2.4-3.75 0-.045-.067-4.825-3.28-7.629-3.209-2.788-8.206-3.524-10.4-3.524h-.39c-1.729 0-6.97.637-10.42 3.54-3.221 2.813-3.26 7.564-3.26 7.612 0 3.259 2.05 3.701 2.462 3.756zm3.712-8.257a2.749 2.749 0 1 1-.003 5.497 2.749 2.749 0 0 1 .003-5.497zm15.152 0a2.749 2.749 0 1 1-.002 5.497 2.749 2.749 0 0 1 .002-5.497zm13.34 23.842c.131-3.619.181-4.709 0-9.64l-.001-7.948c-.006-.05-.89-13.316-11.682-17.388-3.117-1.127-6.175-1.752-9.064-1.853-3.072.11-6.031.715-8.944 1.848-10.846 4.002-11.69 17.34-11.698 17.475l.003 7.81c.023 1.226.058 2.59.09 3.948.084 3.366.162 4.213.103 5.857l-3.028-.11c.055-1.55-.026-2.5-.104-5.672-.033-1.363-.068-2.733-.092-3.994v-1.581H18.95c-1.282 0-2.448.583-3.38 1.4 1.981 1.515 3.147 3.847 3.147 6.413v3.38h-6.994V45.4c0-.583-.466-1.167-1.165-1.167-.583 0-1.166.466-1.166 1.167v3.38H2.4V45.4c0-3.615 2.448-6.764 5.828-7.813a11.965 11.965 0 0 1 10.84-6.88h8.546c.269-2.823 2.107-15.444 13.61-19.688a29.79 29.79 0 0 1 6.316-1.671l1.814-.03V5.176a2.736 2.736 0 0 1-1.12-2.205 2.748 2.748 0 1 1 5.495 0c0 .863-.405 1.623-1.026 2.127v4.164l1.47-.024c2.364.316 4.756.9 7.183 1.778 12.68 4.782 13.626 19.523 13.66 20.149l.002 7.975c.183 4.967.132 6.12-.001 9.804zM27.571 33.04h-8.504c-3.964 0-7.46 2.331-8.975 5.946l-.234.584-.582.116C6.71 40.269 4.73 42.717 4.73 45.4v1.049h2.448v-1.05c0-1.865 1.632-3.498 3.496-3.498 1.865 0 3.497 1.516 3.497 3.499v1.049h2.331v-1.05c0-2.099-1.165-4.08-3.03-5.13l-1.166-.583.7-1.05c1.282-1.982 3.613-3.265 6.06-3.265h8.505zm-3.844 19.505l5.995 22.387c.111.415.044.825-.186 1.124-.224.293-.573.455-.982.455H8.415c-.806 0-1.605-.628-1.817-1.428L.6 52.696c-.112-.415-.044-.825.186-1.126.225-.292.573-.454.982-.454h20.14c.805 0 1.603.628 1.818 1.43zM4.01 54.125L9.2 73.504h17.112l-5.19-19.38zm16.65 8.435l-5.397 4.914-.133.037c-.266.074-.52.146-.76.146-.07 0-.138-.006-.205-.019-.332-.022-.652-.175-.927-.45l-3.637-2.99c-.319-.353-.45-.741-.43-1.133.02-.404.2-.779.49-1.031.617-.53 1.577-.47 2.096.132l2.612 2.098 4.316-3.923c.628-.542 1.587-.48 2.106.123.532.614.471 1.574-.132 2.096zm-.27 25.835l-2.813.755-2.965-9.835 2.814-.755zm6.005-3.914l-2.816.756-1.625-4.75 2.816-.755zm6.953-25.668h20.139c.804 0 1.602.628 1.817 1.428l5.997 22.387c.111.416.043.826-.188 1.125-.224.293-.573.454-.981.454h-20.14c-.804 0-1.602-.627-1.817-1.428L32.18 60.39c-.112-.416-.044-.824.186-1.124.225-.292.574-.454.983-.454zm7.43 22.386H57.89L52.702 61.82H35.59zM38.7 67.884l-.757-2.822h14.123l.757 2.822zm15.522 5.223H40.099l-.756-2.822h14.123zm1.344 5.224H48.25l-.756-2.823h7.316z"/></svg>