<svg xmlns="http://www.w3.org/2000/svg" width="127" height="126"><defs><clipPath id="a"><path fill="#fff" d="M63.562.656c34.57 0 62.594 28.024 62.594 62.594s-28.024 62.594-62.594 62.594S.97 97.82.97 63.25 28.993.656 63.562.656z"/></clipPath></defs><path fill="#fff" d="M63.562.656c34.57 0 62.594 28.024 62.594 62.594s-28.024 62.594-62.594 62.594S.97 97.82.97 63.25 28.993.656 63.562.656z"/><path fill="none" stroke="#ffdad4" stroke-dasharray="8 4" stroke-miterlimit="50" stroke-width="4" d="M63.562.656c34.57 0 62.594 28.024 62.594 62.594s-28.024 62.594-62.594 62.594S.97 97.82.97 63.25 28.993.656 63.562.656z" clip-path="url(&quot;#a&quot;)"/><g><path fill="#75ba97" d="M63.578 32.844C80.38 32.844 94 46.464 94 63.265c0 16.802-13.62 30.422-30.422 30.422-16.801 0-30.422-13.62-30.422-30.422 0-16.801 13.62-30.421 30.422-30.421z"/></g></svg>