<svg id="Слой_1" xmlns="http://www.w3.org/2000/svg" viewBox="0 0 846.5 539.9"><style>.st1{opacity:.37;fill:#c0d5c4;enable-background:new}</style><switch><g><g id="text"><g id="img"><path id="Фигура_521" d="M846.2 536.6s-177.8-67.2-220.3-85.4c-14.9-54.3-36.7-138.7-36.7-138.7l-190.5-42.9-75-145.4-172.5-32.4L0 0h846.4l-.2 536.6z" fill="#75ba97"/><path class="st1" d="M430.2 214.6c153.3-138 223.5 122.5 295.3 130.7 71.8 8.3 54.8-131.7 118.2-101.1.9.4 1.7.9 2.6 1.3v-37.3c-.9-.5-1.8-1-2.8-1.5-63.2-31.5-48.5 117.8-123.8 105.7-75.3-12-156.1-270.2-305.3-138-15.3 13.5-31.3 24.5-47.6 33.3l19.8 38.5c15-8.5 29.6-19 43.6-31.6zM841.3 494.3c-23.8-2.8-37.3 8.2-50 21.4 6 2.3 11.7 4.5 17 6.5 9-5.1 19.3-8.3 32.5-7.7 1.9.1 3.7.2 5.5.3v-19.9c-1.7-.2-3.4-.4-5-.6zM691.4 149.5C784 180.4 780.9-15.3 842.9 20.6c1.2.7 2.4 1.4 3.5 2.2V0h-44C774 43.7 755.1 143.4 685.8 118.4c-41.7-15-92.7-69.5-147.2-118.4h-26.3c66.9 53.4 129.1 132.8 179.1 149.5z"/><path class="st1" d="M398.7 134.5C543.7 8.2 635.3 264 714 279.8S780.4 137 843.4 169.3c1 .5 2 1 2.9 1.6v-37.4c-1-.6-2.1-1.2-3.1-1.7-62.7-33.3-52.7 134.6-134.9 115S523.8-26.2 383 94.3c-18 15.4-37 27.1-56.3 35.7l20.2 39.1c17.8-8.8 35.2-20.1 51.8-34.6zM745.6 491.9c-43.6 5.4-71.2-117.4-145.2-136.3 3 11.5 6.4 24.3 9.9 37.5 37.5 18 62.9 58.4 86.4 86.3 20.2 7.8 41.9 16.2 62.5 24.1 36.9-19.5 31.2-84.3 84.1-68.2 1 .3 2 .6 3 1v-21.2c-.8-.3-1.7-.7-2.5-1-62.1-22.5-41.5 71-98.2 77.8zM296.8 0H80.6C133 18.8 219.2 37.8 296.8 0zM655.3 463.2c-10.3-10.3-21.5-20.2-33.9-28.4 1.5 5.7 3 11.2 4.5 16.4 6.7 2.9 17 7 29.4 12z"/><path class="st1" d="M736.8 410.6c64.9.7 43.3-120.7 107.2-91.8.8.3 1.5.7 2.3 1.1v-37.1l-2.4-1.2c-63.6-29.7-44.4 101-112.7 96.5-68.3-4.5-127.7-267.3-285.2-123.5-8 7.4-16.3 14-24.7 20.1l50 11.3c154-130.7 202 123.9 265.5 124.6z"/><path class="st1" d="M742.5 443.2c-54.9 2.7-91-210.8-216.5-145l63.2 14.2s1 3.7 2.6 10c85.8 2 112.1 158.4 156.4 153.2 57.9-6.8 31.7-109.6 96.1-82.5.7.3 1.3.6 2 .9v-37c-.7-.3-1.4-.7-2.1-1-64.2-28-40.3 84.1-101.7 87.2zM842.7 456.7c-42-10.3-48.2 28.2-70.4 51.8 2.9 1.1 5.7 2.2 8.4 3.2 16.3-20 28.1-42.6 61.2-36.5 1.4.3 2.8.5 4.2.8v-18.4c-1-.3-2.2-.6-3.4-.9z"/><path id="Фигура_520" d="M63.7 539.6L285.2 429 253 334.9l142.5-101.2-25-82.2L846.4.6l.1 539.2-782.8-.2z" fill="#fdece9"/></g></g></g></switch></svg>