<svg id="Слой_1" xmlns="http://www.w3.org/2000/svg" viewBox="0 0 550.1 348.8"><style>.st1{opacity:.37;fill:#c0d5c4;enable-background:new}</style><switch><g><g id="text"><g id="img"><path id="Фигура_521" d="M550 348.8s-115.6-43.7-143.2-55.5c-9.7-35.3-23.8-90.2-23.8-90.2l-123.8-27.9-48.8-94.5-112.1-21L0 0h550.1l-.1 348.8z" fill="#75ba97"/><path class="st1" d="M279.6 139.5c99.7-89.7 145.3 79.6 191.9 85 46.7 5.4 35.6-85.6 76.8-65.7.6.3 1.1.6 1.7.9v-24.2l-1.8-.9c-41.1-20.5-31.5 76.5-80.5 68.7-48.9-7.8-101.5-175.6-198.4-89.7-9.9 8.8-20.3 15.9-30.9 21.7l12.9 25c9.8-5.8 19.2-12.6 28.3-20.8zM546.8 321.3c-15.4-1.8-24.2 5.3-32.5 13.9 3.9 1.5 7.6 2.9 11 4.2 5.9-3.3 12.6-5.4 21.1-5 1.2.1 2.4.1 3.6.2v-13c-1 0-2.1-.2-3.2-.3zM449.4 97.2c60.2 20.1 58.2-107.1 98.5-83.8.8.4 1.5.9 2.3 1.4V0h-28.6c-18.4 28.4-30.7 93.2-75.7 77-27.1-9.8-60.2-45.2-95.7-77H333c43.5 34.7 83.9 86.3 116.4 97.2z"/><path class="st1" d="M259.2 87.4c94.2-82.1 153.8 84.1 205 94.4 51.2 10.3 43.1-92.8 84.1-71.7.6.3 1.3.7 1.9 1V86.8c-.7-.4-1.3-.8-2-1.1-40.8-21.6-34.2 87.5-87.7 74.8S340.5-17 249 61.3c-11.7 10-24 17.6-36.6 23.2l13.1 25.4c11.6-5.7 22.9-13.1 33.7-22.5zM484.7 319.8c-28.4 3.5-46.3-76.3-94.4-88.6 1.9 7.4 4.1 15.8 6.4 24.4 24.4 11.7 40.9 37.9 56.2 56.1 13.1 5.1 27.3 10.5 40.6 15.6 24-12.7 20.3-54.8 54.6-44.3.7.2 1.3.4 2 .6v-13.8c-.5-.2-1.1-.4-1.6-.6-40.4-14.7-27 46.1-63.8 50.6zM193 0H52.4C86.5 12.2 142.5 24.6 193 0zM425.9 301.1c-6.7-6.7-14-13.1-22-18.5 1 3.7 2 7.3 2.9 10.7 4.4 1.8 11.1 4.6 19.1 7.8z"/><path class="st1" d="M478.9 266.9c42.2.5 28.1-78.4 69.6-59.7.5.2 1 .5 1.5.7v-24.1c-.5-.3-1-.5-1.6-.8-41.4-19.3-28.8 65.6-73.2 62.7-44.4-2.9-83-173.8-185.4-80.2-5.2 4.8-10.6 9.1-16 13l32.5 7.3c100.1-84.8 131.3 80.7 172.6 81.1z"/><path class="st1" d="M482.6 288.1c-35.7 1.8-59.1-137-140.8-94.2l41.1 9.3s.6 2.4 1.7 6.5c55.8 1.3 72.9 103 101.7 99.6 37.7-4.4 20.6-71.3 62.4-53.7.4.2.9.4 1.3.6v-24c-.5-.2-.9-.4-1.4-.6-41.6-18.4-26.1 54.5-66 56.5zM547.8 296.9c-27.3-6.7-31.3 18.3-45.7 33.7 1.9.7 3.7 1.4 5.5 2.1 10.6-13 18.3-27.7 39.8-23.7.9.2 1.8.4 2.8.5v-12c-.9-.2-1.7-.4-2.4-.6z"/></g></g></g></switch></svg>