<svg xmlns="http://www.w3.org/2000/svg" viewBox="0 0 435.3 373.9" width="435.3" height="373.9"><style>.st1{fill:#75ba97}.st2{opacity:.73;fill:#acceb8;enable-background:new}</style><switch><g><g id="right"><path d="M338.4 374.1l-186-93 27-79-102-74 21-69-99-59v374h339z" fill="#fdece9"/><path class="st1" d="M136.6 269.8c2.1 0 3.9-1.7 3.9-3.9s-1.7-3.9-3.9-3.9c-2.1 0-3.9 1.7-3.9 3.9s1.7 3.9 3.9 3.9zM128 222c0-2.7-2.2-4.9-4.9-4.9s-4.9 2.2-4.9 4.9 2.2 4.9 4.9 4.9 4.9-2.2 4.9-4.9zM130.5 249.5c2.6 0 4.7-2.1 4.7-4.8 0-2.6-2.1-4.7-4.8-4.7-2.6 0-4.7 2.1-4.7 4.8 0 2.6 2.2 4.8 4.8 4.7zM93.1 140.8c-3.3 0-5.9 2.7-5.9 5.9 0 3.3 2.7 5.9 5.9 5.9 3.3 0 5.9-2.7 5.9-5.9 0-.9-.2-1.8-.6-2.6l-4.5-3.3h-.8zM64.6 304.3c3.3 0 6-2.7 6-6s-2.7-6-6-6-6 2.7-6 6 2.7 6 6 6zM64.3 145.4c0 3.7 3 6.6 6.6 6.6 3.7 0 6.6-3 6.6-6.6s-3-6.6-6.6-6.6c-3.6 0-6.6 2.9-6.6 6.6zM119 273.3c2.5 0 4.5-2 4.5-4.5s-2-4.5-4.6-4.5c-2.5 0-4.5 2-4.5 4.5s2.1 4.5 4.6 4.5zM133.1 192.6c-2.7 0-4.9 2.2-4.9 4.9s2.2 4.9 4.9 4.9 4.9-2.2 4.9-4.9c-.1-2.8-2.2-4.9-4.9-4.9zM97.9 248.9c0-3.5-2.8-6.3-6.3-6.3s-6.3 2.8-6.3 6.3 2.8 6.3 6.3 6.3c3.4 0 6.3-2.8 6.3-6.3zM111.9 252.4c3 0 5.5-2.5 5.5-5.5s-2.5-5.5-5.5-5.5-5.5 2.5-5.5 5.5 2.5 5.5 5.5 5.5zM76.5 250.9c0-3.9-3.2-7.1-7.1-7.1-3.9 0-7.1 3.2-7.1 7.1 0 3.9 3.2 7.1 7.1 7.1 3.9 0 7.1-3.2 7.1-7.1zM86.4 300.8c3 0 5.5-2.5 5.5-5.5s-2.5-5.5-5.5-5.5-5.5 2.5-5.5 5.5c0 3.1 2.5 5.5 5.5 5.5zM78.5 280c3.3 0 5.9-2.7 5.9-5.9 0-3.3-2.7-5.9-5.9-5.9-3.3 0-5.9 2.7-5.9 5.9-.1 3.3 2.6 5.9 5.9 5.9zM106.5 297c2.7 0 4.8-2.2 4.8-4.8 0-2.7-2.2-4.8-4.8-4.8-2.7 0-4.8 2.2-4.8 4.8-.1 2.6 2.1 4.8 4.8 4.8zM99.6 276.7c2.9 0 5.2-2.3 5.2-5.2 0-2.9-2.3-5.2-5.2-5.2-2.9 0-5.2 2.3-5.2 5.2 0 2.9 2.3 5.2 5.2 5.2zM53 171.6c0 3.9 3.2 7.1 7.1 7.1 3.9 0 7.1-3.2 7.1-7.1 0-3.9-3.2-7.1-7.1-7.1-4 .1-7.1 3.2-7.1 7.1zM75.1 120.8c0 1.8.9 3.4 2.2 4.4l3-9.9c-2.9.2-5.2 2.6-5.2 5.5zM44.7 362.5c2.3 0 4.1-1.8 4.1-4.1s-1.8-4.1-4.1-4.1c-2.2 0-4.1 1.8-4.1 4.1.1 2.3 1.9 4.1 4.1 4.1zM36.4 347c2.8 0 5-2.3 5-5.1s-2.3-5-5.1-5-5 2.3-5 5.1 2.3 5 5.1 5zM27 329.2c3.2 0 5.8-2.6 5.8-5.8s-2.6-5.8-5.8-5.8c-3.2 0-5.8 2.6-5.8 5.8 0 3.2 2.6 5.8 5.8 5.8zM50.5 326.4c3 0 5.4-2.4 5.4-5.4 0-3-2.4-5.4-5.4-5.4-3 0-5.4 2.4-5.4 5.4 0 2.9 2.4 5.3 5.4 5.4zM71.9 372.4c1.8 0 3.2-1.4 3.2-3.2 0-1.8-1.4-3.2-3.2-3.2-1.8 0-3.2 1.4-3.2 3.2 0 1.8 1.5 3.2 3.2 3.2zM77.6 318c0-2.7-2.2-4.9-4.9-4.9s-4.9 2.2-4.9 4.9 2.2 4.9 4.9 4.9 4.9-2.2 4.9-4.9zM22.6 365.5c2.4 0 4.4-2 4.4-4.4 0-2.4-2-4.4-4.4-4.4-2.4 0-4.4 2-4.4 4.4 0 2.4 1.9 4.4 4.4 4.4zM65.8 358.9c2.1 0 3.7-1.7 3.7-3.7s-1.7-3.7-3.7-3.7c-2.1 0-3.7 1.7-3.7 3.7s1.6 3.7 3.7 3.7zM13 349.5c2.9 0 5.3-2.4 5.3-5.3s-2.4-5.3-5.3-5.3-5.3 2.4-5.3 5.3 2.4 5.3 5.3 5.3zM57.5 112.8c-3.3 0-6 2.7-6 6s2.7 6 6 6 6-2.7 6-6c.1-3.3-2.6-6-6-6zM.8 170.7c0 4.2 3.4 7.5 7.5 7.5s7.5-3.4 7.5-7.5-3.4-7.5-7.5-7.5-7.5 3.3-7.5 7.5zM27.6 171.2c0 4.2 3.4 7.5 7.5 7.5s7.5-3.4 7.5-7.5-3.4-7.5-7.5-7.5c-4.2 0-7.5 3.3-7.5 7.5zM39.7 144.1c0 4 3.3 7.3 7.3 7.3s7.3-3.3 7.3-7.3-3.3-7.3-7.3-7.3c-4.1.1-7.3 3.3-7.3 7.3zM21.1 135.4c-4.1 0-7.5 3.4-7.5 7.5 0 4.2 3.4 7.5 7.5 7.5s7.5-3.4 7.5-7.5-3.3-7.5-7.5-7.5zM8.5 325.2c0-3.4-2.7-6.1-6.1-6.1-1.1 0-2.1.3-3 .8v10.6c.9.5 1.9.8 3 .8 3.4 0 6.1-2.7 6.1-6.1zM-.5 367.5c2.5 0 4.5-2 4.5-4.6s-2-4.5-4.6-4.5h-.1l.2 9.1zM-.6 146.6c1-1.3 1.7-2.9 1.7-4.7 0-1.8-.6-3.4-1.7-4.7v9.4zM58.7 343.8c2.6 0 4.7-2.1 4.7-4.8 0-2.6-2.1-4.7-4.8-4.7-2.6 0-4.7 2.1-4.7 4.8 0 2.6 2.1 4.7 4.8 4.7zM55.6 283.1c3.7 0 6.6-3 6.6-6.6s-3-6.6-6.6-6.6c-3.7 0-6.6 3-6.6 6.6 0 3.7 2.9 6.6 6.6 6.6zM126.2 365.8c0-.8-.6-1.4-1.4-1.4-.8 0-1.4.6-1.4 1.4 0 .7.6 1.4 1.4 1.4.8 0 1.4-.6 1.4-1.4zM149.8 192.9c-2.3 0-4.2 1.9-4.2 4.2 0 2.3 1.9 4.2 4.2 4.2 2.3 0 4.2-1.9 4.2-4.2s-1.9-4.2-4.2-4.2zM103.7 217.7c-3.1 0-5.6 2.5-5.6 5.6 0 3.1 2.5 5.6 5.6 5.6 3.1 0 5.6-2.5 5.6-5.7s-2.5-5.5-5.6-5.5zM143.2 242.7c0 2.2 1.8 4 4 4s4-1.8 4-4-1.8-4-4-4c-2.2-.1-4 1.7-4 4zM83.2 178.4c3.5 0 6.3-2.8 6.3-6.3s-2.8-6.3-6.3-6.3-6.3 2.8-6.3 6.3 2.8 6.3 6.3 6.3zM114.5 192.2c-3.1 0-5.6 2.5-5.6 5.6 0 3.1 2.5 5.7 5.7 5.7 3.1 0 5.6-2.5 5.6-5.7s-2.6-5.6-5.7-5.6zM128.7 173.1c0-2.6-2.1-4.8-4.8-4.7-2.6 0-4.7 2.1-4.7 4.8 0 2.6 2.1 4.8 4.8 4.8 2.6-.2 4.7-2.3 4.7-4.9zM140.8 216.6c-2.3 0-4.2 1.9-4.1 4.2 0 2.3 1.9 4.2 4.2 4.2 2.3 0 4.2-1.9 4.1-4.2 0-2.4-1.9-4.2-4.2-4.2zM31.1 372.3c-1.7 0-3.2 1.2-3.6 2.8h7.2c-.4-1.6-1.8-2.8-3.6-2.8zM44 30.6c0 1.9 1.5 3.4 3.4 3.4 1.7 0 3.1-1.3 3.4-2.9l-5.4-3.3c-.8.6-1.4 1.6-1.4 2.8zM7.9 9.2c0 1.7 1.4 3.1 3.1 3.1 1.7 0 3.1-1.4 3.1-3.2v-.2L9.7 6.3c-1.1.5-1.8 1.6-1.8 2.9zM145.2 305.5c1.5 0 2.7-1.2 2.7-2.7s-1.2-2.7-2.7-2.7c-1.5 0-2.7 1.2-2.7 2.7 0 1.5 1.2 2.7 2.7 2.7zM138.8 359.9c0-.6-.5-1.1-1.1-1.1-.6 0-1.1.5-1.1 1.1 0 .6.5 1.1 1.1 1.1.6-.1 1.1-.5 1.1-1.1zM144.4 367.1c0 .1.1.1.1.1.1 0 .1-.1.1-.1l-.1-.1c-.1 0-.1 0-.1.1zM137.1 367.3c-.4 0-.8.3-.8.8 0 .4.4.8.8.8s.8-.4.7-.8c0-.4-.3-.7-.7-.8zM137.3 347.9c-.9 0-1.7.8-1.7 1.7 0 .9.8 1.7 1.7 1.7.9 0 1.7-.8 1.7-1.7s-.8-1.7-1.7-1.7zM156.7 222.9c1.9 0 3.4-1.6 3.4-3.5s-1.6-3.4-3.4-3.4c-1.9 0-3.4 1.5-3.4 3.4-.1 1.9 1.5 3.5 3.4 3.5zM16.6 309.8c3.8 0 6.9-3.1 6.9-6.9 0-3.8-3.1-6.9-6.9-6.9-3.8 0-6.9 3.1-6.9 6.9 0 3.8 3.1 6.9 6.9 6.9zM27.4 254.4c0-4.1-3.4-7.5-7.5-7.5s-7.5 3.4-7.5 7.5c0 4.2 3.4 7.5 7.5 7.5s7.5-3.4 7.5-7.5zM-.6 252.2v6.9c.5-1 .8-2.2.8-3.4.1-1.3-.2-2.5-.8-3.5zM-.6 194.5v10.9c1.5-1.4 2.4-3.3 2.4-5.5 0-2.1-.9-4.1-2.4-5.4zM5.2 287.8c4.2 0 7.5-3.4 7.5-7.5s-3.4-7.5-7.5-7.5c-2.3 0-4.4 1-5.7 2.7v9.7c1.3 1.5 3.4 2.6 5.7 2.6zM53 252.8c0-4.1-3.4-7.5-7.5-7.5s-7.5 3.4-7.5 7.5 3.4 7.5 7.5 7.5c4.2 0 7.5-3.4 7.5-7.5zM41.3 307.3c3.6 0 6.5-2.9 6.5-6.5s-2.9-6.5-6.6-6.5c-3.6 0-6.5 2.9-6.5 6.5.1 3.6 3 6.5 6.6 6.5zM31.1 285.9c4 0 7.3-3.3 7.3-7.3s-3.3-7.3-7.3-7.2c-4 0-7.2 3.3-7.2 7.3 0 3.9 3.2 7.2 7.2 7.2zM82.3 218.1c-3.6 0-6.5 2.9-6.5 6.5s2.9 6.5 6.5 6.5 6.5-2.9 6.5-6.5-2.9-6.5-6.5-6.5zM104.5 167.1c-3 0-5.5 2.5-5.5 5.5 0 3.1 2.5 5.5 5.5 5.5s5.5-2.5 5.5-5.5c0-3.1-2.5-5.5-5.5-5.5zM59.2 218.5c-4.1 0-7.3 3.3-7.3 7.3 0 4.1 3.3 7.3 7.3 7.3 4.1 0 7.3-3.3 7.3-7.3s-3.2-7.3-7.3-7.3zM64.5 198.7c0 4.1 3.3 7.3 7.3 7.3 4.1 0 7.3-3.3 7.3-7.4s-3.3-7.3-7.4-7.3c-3.9.1-7.2 3.4-7.2 7.4zM94.1 191.8c-3.6 0-6.5 2.9-6.5 6.5s2.9 6.5 6.5 6.5 6.5-2.9 6.5-6.5-2.9-6.5-6.5-6.5zM22 192c-4.1 0-7.5 3.4-7.5 7.5 0 4.2 3.4 7.5 7.5 7.5s7.5-3.4 7.5-7.5-3.4-7.5-7.5-7.5zM7.6 220.6c-4.1 0-7.5 3.4-7.5 7.5 0 4.2 3.4 7.5 7.5 7.5s7.5-3.4 7.5-7.5-3.3-7.5-7.5-7.5zM47.8 191.6c-4.1 0-7.5 3.4-7.5 7.5 0 4.2 3.4 7.5 7.5 7.5s7.5-3.4 7.5-7.5-3.3-7.5-7.5-7.5zM34.3 219.6c-4.1 0-7.5 3.4-7.5 7.5 0 4.2 3.4 7.5 7.5 7.5s7.5-3.4 7.5-7.5c0-4.2-3.3-7.6-7.5-7.5zM82.9 51c-2.1 0-3.7 1.7-3.7 3.7 0 2.1 1.7 3.7 3.7 3.7 2.1 0 3.7-1.7 3.7-3.8S84.9 51 82.9 51zM154.5 361.8c0-.1-.1-.1 0 0-.1-.1-.1-.1 0 0-.1-.1-.1 0 0 0-.1 0-.1 0 0 0-.1 0 0 0 0 0zM158.3 347.1c0 .2.2.3.4.4.3 0 .5-.2.5-.5s-.2-.5-.5-.5c-.3.1-.5.4-.4.6zM155.8 354.6c.2 0 .3-.1.3-.3s-.1-.3-.3-.3c-.2 0-.3.1-.3.3 0 .1.2.3.3.3zM52.1 369.5c-1.9 0-3.4 1.5-3.4 3.4 0 .8.3 1.6.8 2.2h5.3c.5-.6.8-1.4.8-2.2-.1-1.8-1.6-3.4-3.5-3.4zM94.4 374.6c-.5 0-1 .2-1.4.6h2.8c-.4-.4-.9-.6-1.4-.6zM162.3 326.7c0-.7-.6-1.2-1.2-1.2-.7 0-1.2.6-1.2 1.2 0 .7.5 1.2 1.2 1.2.6 0 1.2-.6 1.2-1.2zM160.6 311.6c-1.1 0-1.9.9-1.9 1.9 0 1.1.9 1.9 1.9 1.9 1.1 0 1.9-.9 1.9-1.9 0-1-.9-1.9-1.9-1.9zM159.4 337.8c0 .5.4 1 1 1 .5 0 1-.4 1-1 0-.5-.4-1-1-1-.5 0-1 .5-1 1zM126.4 374.5c0-.6-.5-1-1-1-.6 0-1 .5-1 1 0 .2.1.4.2.6h1.6c.1-.1.2-.3.2-.6zM24.6 24.3c-2 0-3.7 1.7-3.7 3.7s1.7 3.7 3.7 3.7 3.7-1.7 3.7-3.7-1.6-3.7-3.7-3.7zM14.7 42.1c-2.5 0-4.5 2-4.5 4.5s2 4.5 4.5 4.5 4.5-2 4.5-4.5-2-4.5-4.5-4.5zM12.1 91.3c0 3.4 2.7 6.1 6.1 6.1 3.4 0 6.1-2.7 6.1-6.1 0-3.4-2.7-6.1-6.1-6.1-3.4 0-6.1 2.7-6.1 6.1zM29 64c-2.8 0-5 2.3-5 5 0 2.8 2.3 5.1 5.1 5 2.8 0 5-2.3 5-5.1C34 66.2 31.7 64 29 64zM.9 22.3c-.5 0-1 .1-1.4.3v7.1c.4.2.9.3 1.4.3 2.1 0 3.8-1.7 3.8-3.8S3 22.3.9 22.3zM7.1 375.1h4.4c-.6-.4-1.4-.7-2.2-.7-.9.1-1.6.3-2.2.7zM26.2 117c0 3.6 2.9 6.5 6.5 6.5s6.5-2.9 6.5-6.6c0-3.6-2.9-6.5-6.6-6.5-3.4.1-6.4 3-6.4 6.6zM-.5 115.6c0 3.8 3.1 6.9 6.9 6.9 3.8 0 6.9-3.1 6.9-6.9 0-3.8-3.1-6.9-6.9-6.9-3.8 0-6.9 3.1-6.9 6.9zM3.7 61.9c-1.8 0-3.3.9-4.3 2.2v6.2c1 1.3 2.5 2.2 4.3 2.2 2.9 0 5.3-2.4 5.3-5.3s-2.4-5.3-5.3-5.3zM179.4 314.7c-.3 0-.5.3-.5.6s.2.6.6.6c.3 0 .5-.3.5-.6-.1-.4-.3-.6-.6-.6zM185.9 309.6c.2 0 .3-.1.3-.3 0-.2-.1-.3-.3-.3-.2 0-.3.1-.3.3-.1.2.1.3.3.3-.1 0 0 0 0 0zM182.1 318.8c0 .1.1.1 0 0 .2 0 .2-.1.2-.2s-.1-.2-.2-.2-.2 0-.2.1c.1.2.1.3.2.3zM180.9 302.3c-.6 0-1.1.5-1.1 1.1 0 .6.5 1.1 1.1 1.1.6 0 1.1-.5 1.1-1.1 0-.6-.5-1.1-1.1-1.1zM156.3 284.7c.5 0 1-.1 1.4-.4l-4.3-2.2c.2 1.4 1.4 2.6 2.9 2.6zM176.7 325.6c.2 0 .4-.2.4-.4s-.2-.4-.4-.4-.4.2-.4.4c-.1.2.1.4.4.4zM190.6 303.4c.1 0 .1 0 0 0 .1-.1 0-.2 0-.2v.2zM192.7 315.8s0 .1 0 0c0 .1 0 .1 0 0 .1.1.1 0 0 0 .1 0 .1 0 0 0zM166.9 340.2c0-.1-.1-.3-.3-.3-.1 0-.3.1-.3.2s.1.3.2.3c.2.1.4 0 .4-.2zM172.9 333.3c0-.1 0-.1 0 0-.1-.1-.1-.1 0 0-.1-.1-.2 0-.2 0h.2c0 .1 0 0 0 0zM168.7 331.5c0 .4.3.7.6.7h.1c.4 0 .7-.3.7-.7 0-.4-.3-.7-.7-.7-.4.1-.7.4-.7.7zM162.7 347.1c.1 0 .1-.1.1-.1 0-.1 0-.1-.1-.1s-.1.1-.1.1 0 .1.1.1zM159 296.3c-1.2 0-2.2 1-2.2 2.2 0 1.2 1 2.2 2.2 2.2 1.2 0 2.2-1 2.2-2.2s-1-2.2-2.2-2.2zM171.1 292.5c-.9 0-1.7.8-1.7 1.7 0 .9.8 1.7 1.7 1.7.9 0 1.7-.8 1.7-1.7s-.8-1.7-1.7-1.7zM171.7 307c-.8 0-1.5.7-1.5 1.5s.7 1.5 1.5 1.5 1.5-.7 1.5-1.5-.7-1.5-1.5-1.5zM170.2 321c0 .5.4.9.9.9s.9-.4.9-.9-.4-.9-.9-.9-.9.4-.9.9zM117 331c1.9 0 3.4-1.5 3.4-3.4s-1.5-3.4-3.4-3.4-3.4 1.5-3.4 3.4 1.5 3.4 3.4 3.4zM123.2 357.2c1.1 0 2.1-.9 2.1-2.1s-.9-2.1-2.1-2.1c-1.1 0-2.1.9-2.1 2.1.1 1.2 1 2.1 2.1 2.1zM129 288.8c0-2.3-1.9-4.2-4.2-4.2-2.3 0-4.2 1.9-4.2 4.2 0 2.3 1.9 4.2 4.2 4.2 2.4 0 4.3-1.9 4.2-4.2zM120.6 344.9c1.4 0 2.5-1.1 2.5-2.5s-1.1-2.5-2.5-2.5-2.5 1.1-2.5 2.5c0 1.3 1.2 2.5 2.5 2.5zM129.6 310.2c1.8 0 3.3-1.5 3.3-3.3 0-1.8-1.5-3.3-3.3-3.3-1.8 0-3.3 1.5-3.3 3.3 0 1.8 1.5 3.3 3.3 3.3zM133.2 326c1.6 0 2.9-1.3 2.9-2.9 0-1.6-1.3-2.9-2.9-2.9-1.6 0-2.9 1.3-2.9 2.9 0 1.6 1.3 2.9 2.9 2.9zM79.6 340c2.4 0 4.3-2 4.3-4.3 0-2.4-1.9-4.3-4.3-4.3s-4.3 1.9-4.3 4.3 1.9 4.3 4.3 4.3zM135.5 374.6c.2 0 .3-.1.3-.3s-.1-.3-.3-.3c-.2 0-.3.1-.3.3 0 .2.1.3.3.3zM135.8 339.4c1.2 0 2.1-.9 2.1-2.1s-.9-2.1-2.1-2.1c-1.1 0-2.1.9-2.1 2.1 0 1.2.9 2.1 2.1 2.1zM112.3 314.7c2.1 0 3.8-1.7 3.8-3.8s-1.7-3.8-3.8-3.8c-2.1 0-3.8 1.7-3.8 3.8 0 2.1 1.7 3.8 3.8 3.8zM90.5 367.8c1.6 0 2.8-1.3 2.8-2.8s-1.3-2.8-2.8-2.8c-1.6 0-2.8 1.3-2.8 2.8-.1 1.6 1.2 2.8 2.8 2.8zM99.1 335.7c2.1 0 3.9-1.7 3.9-3.9s-1.7-3.9-3.9-3.9c-2.1 0-3.9 1.7-3.9 3.9 0 2.1 1.7 3.9 3.9 3.9zM97.6 314.6c0-2.4-2-4.4-4.4-4.4s-4.4 2-4.4 4.4c0 2.4 2 4.4 4.4 4.4 2.5-.1 4.4-2 4.4-4.4zM85.6 354.7c1.9 0 3.4-1.5 3.4-3.4s-1.5-3.4-3.3-3.4c-1.9 0-3.4 1.5-3.4 3.3-.1 2 1.4 3.5 3.3 3.5zM103.9 350c1.6 0 2.9-1.3 2.9-2.9s-1.3-2.9-2.9-2.9c-1.6 0-2.9 1.3-2.9 2.9-.1 1.6 1.3 2.9 2.9 2.9zM110.3 373.1c.9 0 1.7-.8 1.7-1.7s-.8-1.7-1.7-1.7c-.9 0-1.7.8-1.7 1.7 0 1 .8 1.7 1.7 1.7zM38.7 44.4c-2.4 0-4.4 2-4.4 4.4 0 2.4 2 4.4 4.4 4.4 2.4 0 4.4-2 4.4-4.4s-2-4.4-4.4-4.4zM141.5 288.9c2 0 3.6-1.6 3.6-3.6s-1.6-3.6-3.6-3.6-3.6 1.6-3.6 3.6 1.6 3.6 3.6 3.6zM107.6 362.7c1.4 0 2.5-1.1 2.5-2.5s-1.1-2.5-2.5-2.5-2.5 1.1-2.5 2.5c.1 1.4 1.2 2.5 2.5 2.5zM170.7 215.3c-1.5 0-2.8 1.3-2.8 2.8 0 1.5 1.3 2.8 2.8 2.8.5 0 1.1-.2 1.5-.4l1.1-3.3c-.4-1.1-1.4-1.9-2.6-1.9zM67 90.1c-3 0-5.4 2.4-5.4 5.4 0 3 2.4 5.4 5.4 5.4 3 0 5.4-2.4 5.4-5.4 0-3-2.4-5.4-5.4-5.4zM75.5 69.8c-2.4 0-4.3 1.9-4.3 4.3s1.9 4.3 4.3 4.3 4.3-1.9 4.3-4.3-1.9-4.3-4.3-4.3zM137.6 173.6c0 2.2 1.8 4 4 4 .8 0 1.5-.2 2.1-.6l-6-4.4c0 .3-.1.6-.1 1zM84.1 98c0 .9.3 1.8.7 2.5l2.1-6.9c-1.6.8-2.8 2.5-2.8 4.4zM147.8 320.8c1.3 0 2.4-1.1 2.4-2.4 0-1.3-1.1-2.4-2.4-2.4-1.3 0-2.4 1.1-2.4 2.4 0 1.3 1.1 2.4 2.4 2.4zM43.4 87.4c-3.2 0-5.8 2.6-5.8 5.8 0 3.2 2.6 5.8 5.8 5.8 3.2 0 5.8-2.6 5.8-5.8s-2.6-5.8-5.8-5.8zM53 66.6c-2.6 0-4.8 2.1-4.8 4.8 0 2.6 2.1 4.8 4.8 4.7 2.6 0 4.8-2.1 4.8-4.8s-2.2-4.7-4.8-4.7zM61.5 47.4c-2.3 0-4.1 1.8-4.1 4.1 0 2.2 1.8 4.1 4.1 4.1s4.1-1.8 4.1-4.1c0-2.2-1.8-4.1-4.1-4.1zM149.3 333.8c.9 0 1.7-.7 1.7-1.7 0-.9-.7-1.7-1.7-1.7-.9 0-1.7.7-1.7 1.6 0 1 .8 1.8 1.7 1.8zM147.3 361.8c.3 0 .5-.2.5-.5s-.2-.5-.5-.5-.5.2-.5.5.2.5.5.5zM151 343.8c0-.8-.6-1.4-1.4-1.4-.8 0-1.4.6-1.4 1.4 0 .7.6 1.4 1.4 1.4.8 0 1.4-.6 1.4-1.4zM162.2 237.2c-1.8 0-3.3 1.5-3.3 3.4s1.5 3.4 3.4 3.4c.9 0 1.7-.4 2.4-1l1-2.8c-.4-1.8-1.8-3-3.5-3zM164.8 200c1.9 0 3.4-1.5 3.4-3.4s-1.5-3.4-3.4-3.4-3.4 1.5-3.4 3.4c-.1 1.9 1.5 3.4 3.4 3.4zM152.4 266.2c1.8 0 3.2-1.4 3.2-3.2s-1.4-3.2-3.2-3.2c-1.8 0-3.2 1.4-3.2 3.2-.1 1.8 1.4 3.2 3.2 3.2zM149 352.8c-.4 0-.8.3-.8.8 0 .4.3.8.8.8.4 0 .8-.3.8-.8s-.4-.8-.8-.8z"/><path id="Фигура_521" class="st1" d="M-.6 268.1l96-20 22-69 103-24 14-110 201-45H-.6v268z"/><g><path class="st2" d="M165.3 168l34.7-8.1c.5-35.8-112.3-91.5-90-160L81.3 0c3.9 64.2 103.7 119.3 92.6 153.9-2 5.9-4.9 10.5-8.6 14.1z"/><path class="st2" d="M163.4-.2l-26.7.1c-20.5 67 72.1 119.8 77.1 156.8l6.6-1.5 2-15.7c-18.7-35.9-74.8-82.2-59-139.7zM116.4 182.5c-21.5 2.5-39.5 6.7-35.3 34.9 1.8 11.7 6.5 22 12.6 31.1l1.7-.4 21-65.6zM98.3 118.8C102.7 89.5 58.2 46.4 28.4.1H14.6C42.7 41.4 75.8 80 73 107.1c-3.7 35.5-41.9 37.4-73 42.2L.1 166c25.6-16.3 91.4-1.3 98.2-47.2z"/><path class="st2" d="M22.1 83.5c-.5 17.9-9.4 28.4-22.2 35.1l.1 17.7c24.3-4.8 45.9-13.8 47.6-41C49.2 70.7 25 36.6.3.1h-.9l.1 24.2C13 46.7 22.6 67 22.1 83.5zM290.2 32.7l29.4-6.6c-.5-8.4-.8-18-1-26.7L289-.5c-.2 11 .3 22.7 1.2 33.2z"/><path class="st2" d="M51 209.2c-9.5-58.1 84.2-14.2 97.7-67 8.5-33.1-68.9-84.7-89-142.2H42.9c27.8 51.7 86.9 99.1 80.6 130.5-11.2 56.4-113 12.4-102.7 70.5 4.1 23 20.2 41.1 36 55.3l17.2-3.6c-10.8-12-20.2-26.3-23-43.5zM378.2.3l-29.8.1c.3 6.4.7 12.8 1 19.1l29.8-6.7c-.3-4.2-.6-8.4-1-12.5zM237.9-.4c-1.7 15.3-.8 30.7 1.7 44.4l24.2-5.4c-1.5-12.2-2.2-25.8-1.4-39h-24.5zM-.7 216.9l.1 24.2c10.1 8.4 21.2 15.4 28.9 21.2l13.5-2.8c-14-11-31.8-25-42.5-42.6zM15 265.1c-2.9-3-9.2-6.7-15.6-11.1l.1 13.6 1 .3 14.5-2.8zM190.1-.3c-10.5 45.2 16.3 83.5 35.5 115.1l3.8-29.5c-11.4-24.9-21-53.8-15.5-85.7l-23.8.1z"/></g></g></g></switch></svg>