<svg xmlns="http://www.w3.org/2000/svg" viewBox="0 0 778 454" width="778" height="454"><style>.st1{fill:#75ba97}.st2{opacity:.37;fill:#c0d5c4;enable-background:new}</style><switch><g><g id="left-2"><path d="M379 454l186-94-27-79 102-74-21-69 159-59v375H379z" fill="#fdece9"/><path class="st1" d="M594.1 346.8c0-3.9-3.2-7.1-7.1-7.1-3.9 0-7.1 3.2-7.1 7.1 0 3.9 3.2 7.1 7.1 7.1 3.9 0 7.1-3.2 7.1-7.1zM625.3 381.7c4 0 7.3-3.3 7.3-7.3s-3.2-7.3-7.2-7.3-7.3 3.2-7.3 7.2c0 4.2 3.2 7.4 7.2 7.4zM597.2 329.1c4.1 0 7.3-3.3 7.3-7.3 0-4.1-3.3-7.3-7.3-7.3-4.1 0-7.3 3.3-7.3 7.3s3.2 7.3 7.3 7.3zM644.1 350.3c0-4.1-3.4-7.5-7.5-7.5s-7.5 3.4-7.5 7.5 3.4 7.5 7.5 7.5 7.5-3.4 7.5-7.5zM600.8 379c3.7 0 6.6-3 6.6-6.6 0-3.7-3-6.6-6.6-6.6-3.7 0-6.6 2.9-6.6 6.6s3 6.6 6.6 6.6zM691.8 359.6c4.1 0 7.5-3.4 7.5-7.5s-3.4-7.5-7.5-7.5-7.5 3.4-7.5 7.5 3.4 7.5 7.5 7.5zM677.1 332.3c4.2 0 7.5-3.4 7.5-7.5s-3.4-7.5-7.5-7.5-7.5 3.3-7.5 7.5 3.4 7.5 7.5 7.5zM663.7 359c4.1 0 7.5-3.4 7.5-7.5s-3.4-7.5-7.5-7.5-7.5 3.4-7.5 7.5 3.3 7.5 7.5 7.5zM651.2 383.6c4.2 0 7.5-3.4 7.5-7.5s-3.4-7.5-7.5-7.5-7.5 3.3-7.5 7.5 3.4 7.5 7.5 7.5zM635.4 231.3c-4.1 0-7.5 3.3-7.5 7.5 0 4.1 3.3 7.5 7.5 7.5s7.5-3.4 7.5-7.5c0-4.2-3.4-7.5-7.5-7.5zM578 375.9c3.3 0 5.9-2.7 5.9-5.9 0-3.3-2.7-5.9-5.9-5.9-3.3 0-5.9 2.7-5.9 5.9-.1 3.2 2.6 5.9 5.9 5.9zM648.8 331.5c4.2 0 7.5-3.4 7.5-7.5s-3.4-7.5-7.5-7.5-7.5 3.3-7.5 7.5 3.4 7.5 7.5 7.5zM706.3 332.5c.1 0 .1 0 0 0 4.2 0 7.5-3.4 7.5-7.5s-3.4-7.5-7.5-7.5-7.5 3.4-7.5 7.5 3.4 7.5 7.5 7.5zM642 295.4c0-4.1-3.4-7.5-7.5-7.5s-7.5 3.4-7.5 7.5 3.4 7.5 7.5 7.5 7.5-3.3 7.5-7.5zM648.1 259c-4.1 0-7.5 3.4-7.5 7.5s3.4 7.5 7.5 7.5c4.2 0 7.5-3.4 7.5-7.5s-3.3-7.5-7.5-7.5zM623.6 219.4c.1 0 .1 0 0 0 3.2 0 5.8-2.3 6.4-5.2l-7.2 5.2h.8zM551.9 274c.1 0 .1 0 0 0 3.1 0 5.5-2.5 5.5-5.5 0-.5-.1-1-.2-1.4l-8.3 6.1c.9.4 1.9.8 3 .8zM570 396.7c3 0 5.5-2.5 5.5-5.5s-2.4-5.5-5.5-5.5c-3 0-5.5 2.4-5.5 5.5.1 3 2.5 5.5 5.5 5.5zM585.5 247.9c3.5 0 6.4-2.7 6.6-6.1l-8.2 5.9c.5.1 1.1.2 1.6.2zM763.5 143.9c0 2.1 1.7 3.8 3.8 3.8 2.1 0 3.8-1.7 3.8-3.8 0-2.1-1.7-3.8-3.8-3.8-2.1 0-3.8 1.7-3.8 3.8zM777.5 168.2v-3.5c-.2.5-.4 1.1-.4 1.8.1.6.2 1.2.4 1.7zM776.4 122.4c-1.8 0-3.2 1.4-3.2 3.2s1.4 3.2 3.2 3.2c.5 0 .9-.1 1.4-.3v-5.8c-.5-.2-.9-.3-1.4-.3zM766.7 188.5c0 2.8 2.2 5 5 5s5-2.2 5-5-2.2-5-5-5-5 2.2-5 5zM769.7 323.3c0-4.1-3.4-7.5-7.5-7.5s-7.5 3.4-7.5 7.5 3.4 7.5 7.5 7.5 7.5-3.4 7.5-7.5zM762.5 103.9c-1.5 0-2.7 1.2-2.7 2.7 0 1.5 1.2 2.7 2.7 2.7 1.5 0 2.7-1.2 2.7-2.7 0-1.5-1.2-2.7-2.7-2.7zM752.4 164.3c0 2.7 2.2 4.8 4.8 4.8 2.7 0 4.8-2.2 4.8-4.8 0-2.7-2.2-4.8-4.8-4.8-2.7 0-4.8 2.1-4.8 4.8zM770.8 89.8c-1.2 0-2.1.9-2.1 2.1s.9 2.1 2.1 2.1c1.2 0 2.1-.9 2.1-2.1 0-1.2-.9-2.1-2.1-2.1zM759.2 381.8c3.8 0 6.8-3 6.8-6.8 0-3.7-3-6.8-6.8-6.8s-6.8 3-6.8 6.8c0 3.7 3 6.8 6.8 6.8zM622.1 330.4c4.2 0 7.5-3.4 7.5-7.5s-3.4-7.5-7.5-7.5-7.5 3.3-7.5 7.5 3.4 7.5 7.5 7.5zM735 331.8c4.1 0 7.5-3.4 7.5-7.5s-3.4-7.5-7.5-7.5-7.5 3.4-7.5 7.5 3.4 7.5 7.5 7.5zM763 259.6c-4 0-7.3 3.2-7.3 7.2s3.2 7.3 7.2 7.3 7.3-3.3 7.3-7.3c0-3.9-3.2-7.2-7.2-7.2zM757.1 295.5c0-4.1-3.4-7.5-7.5-7.5s-7.5 3.4-7.5 7.5 3.4 7.5 7.5 7.5 7.5-3.3 7.5-7.5zM760.7 206.3c-3.4 0-6.2 2.7-6.2 6.1 0 3.4 2.7 6.2 6.1 6.2 3.4 0 6.2-2.8 6.2-6.2.1-3.3-2.7-6.1-6.1-6.1zM769 239.6c0 3.4 2.7 6.1 6.1 6.1.7 0 1.4-.1 2-.4l.1-11.4c-.7-.2-1.4-.4-2.1-.4-3.4 0-6.1 2.8-6.1 6.1zM747.6 357.9c4 0 7.3-3.2 7.3-7.3 0-4-3.2-7.3-7.2-7.3s-7.3 3.2-7.3 7.2c0 4.2 3.2 7.4 7.2 7.4zM721.4 288.4c-4.1 0-7.5 3.4-7.5 7.5s3.4 7.5 7.5 7.5c4.2 0 7.5-3.4 7.5-7.5s-3.3-7.5-7.5-7.5zM720.1 359.2c4.2 0 7.5-3.4 7.5-7.5s-3.4-7.5-7.5-7.5-7.5 3.3-7.5 7.5 3.4 7.5 7.5 7.5zM748.8 231.7c-3.8 0-6.8 3-6.8 6.8s3 6.8 6.8 6.8 6.8-3 6.8-6.8-3.1-6.8-6.8-6.8zM735.7 258.9c-4.1 0-7.5 3.4-7.5 7.5s3.4 7.5 7.5 7.5c4.2 0 7.5-3.4 7.5-7.5s-3.3-7.5-7.5-7.5zM691.7 244.8c4.2 0 7.5-3.4 7.5-7.5s-3.4-7.5-7.5-7.5-7.5 3.4-7.5 7.5 3.4 7.5 7.5 7.5zM511.3 401.4c1.5 0 2.7-1.2 2.7-2.7 0-1.5-1.2-2.7-2.7-2.7-1.5 0-2.7 1.2-2.7 2.7s1.2 2.7 2.7 2.7zM508.8 428c0-.9-.7-1.7-1.7-1.7-.9 0-1.7.7-1.7 1.7 0 .9.7 1.7 1.7 1.7 1-.1 1.7-.8 1.7-1.7zM500.6 449.8c-.2 0-.3.1-.3.3 0 .2.1.3.3.3.2 0 .3-.1.3-.3 0-.1-.1-.3-.3-.3zM511 414.3c0-1.3-1.1-2.4-2.4-2.4-1.3 0-2.4 1.1-2.4 2.4 0 1.3 1.1 2.4 2.4 2.4 1.4 0 2.4-1.1 2.4-2.4zM608.6 302.5c4.2 0 7.5-3.4 7.5-7.5s-3.4-7.5-7.5-7.5-7.5 3.4-7.5 7.5 3.4 7.5 7.5 7.5zM673.5 162.1c0 3 2.4 5.4 5.4 5.4 3 0 5.4-2.4 5.4-5.4 0-3-2.4-5.4-5.4-5.4-3 0-5.4 2.4-5.4 5.4zM685.9 185.2c0 3.4 2.7 6.1 6.1 6.1 3.4 0 6.1-2.7 6.1-6.1 0-3.4-2.7-6.1-6.1-6.1-3.4 0-6.1 2.7-6.1 6.1zM692.2 145c2.5 0 4.5-2 4.5-4.5s-2-4.5-4.5-4.5-4.5 2-4.6 4.5c.1 2.5 2.1 4.5 4.6 4.5zM670.7 210.5c0 3.9 3.2 7 7 7.1 3.9 0 7-3.2 7.1-7 0-3.9-3.2-7-7-7-4-.1-7.1 3-7.1 6.9zM692.3 436.7c-2.9 0-5.3 2.4-5.3 5.3s2.4 5.3 5.3 5.3 5.3-2.4 5.3-5.3-2.3-5.2-5.3-5.3zM716.2 106.4c1.7 0 3.1-1.4 3.1-3.1 0-.9-.4-1.6-.9-2.2l-5.2 1.9v.3c0 1.7 1.4 3.1 3 3.1zM692.1 393.7c-3.8 0-7 3.1-7 7 0 3.8 3.1 7 7 7 3.8 0 7-3.1 7-7-.1-3.9-3.2-7-7-7zM740.6 186.7c0 3 2.4 5.5 5.5 5.5 3 0 5.5-2.5 5.5-5.5s-2.4-5.5-5.5-5.5c-3 0-5.5 2.5-5.5 5.5zM508.1 439.7c0-.8-.6-1.4-1.4-1.4-.8 0-1.4.6-1.4 1.4 0 .8.6 1.4 1.4 1.4.8 0 1.4-.7 1.4-1.4zM716.2 106.4zM538.3 438.2c0-1.4-1.1-2.5-2.5-2.5s-2.5 1.1-2.5 2.5 1.1 2.5 2.5 2.5 2.5-1.1 2.5-2.5zM574.2 447.2c0-1.9-1.5-3.4-3.4-3.4s-3.4 1.5-3.3 3.4 1.5 3.4 3.4 3.3c1.8.1 3.3-1.4 3.3-3.3zM507.4 450.2c.4 0 .8-.3.8-.8 0-.4-.3-.8-.8-.8-.4 0-.8.3-.8.8.1.5.4.8.8.8zM552.6 445.8c1.6 0 2.9-1.3 2.9-2.9 0-1.6-1.3-2.9-2.9-2.9-1.6 0-2.9 1.3-2.9 2.9-.1 1.6 1.3 2.9 2.9 2.9zM680 124.9c2.1 0 3.9-1.7 3.9-3.9 0-2.1-1.7-3.9-3.9-3.9s-3.9 1.7-3.9 3.9 1.8 3.9 3.9 3.9zM573.3 274.3c3.5 0 6.3-2.8 6.3-6.3s-2.8-6.3-6.3-6.3-6.3 2.8-6.3 6.3c0 3.4 2.8 6.3 6.3 6.3zM562.4 287.6c-3.6 0-6.5 2.9-6.5 6.5s2.9 6.5 6.5 6.5 6.5-2.9 6.5-6.5c-.1-3.5-3-6.4-6.5-6.5zM542 288.1c-.5 0-1 .1-1.5.2l3.6 10.7c2-.9 3.5-2.9 3.5-5.2 0-3.2-2.5-5.7-5.6-5.7zM558.4 319.2c0-3.1-2.5-5.6-5.6-5.6-1.2 0-2.4.4-3.3 1.1l3.5 10.2c3-.2 5.4-2.6 5.4-5.7zM574.1 327c3.6 0 6.5-2.9 6.5-6.5s-2.9-6.5-6.5-6.5-6.5 2.9-6.5 6.5 2.9 6.5 6.5 6.5zM609.5 232.7c-4 0-7.3 3.2-7.3 7.2s3.2 7.3 7.2 7.3 7.3-3.3 7.3-7.3c.1-3.9-3.2-7.2-7.2-7.2zM584.6 301.9c4.1 0 7.4-3.3 7.4-7.3 0-4.1-3.3-7.3-7.3-7.3-4.1 0-7.4 3.3-7.4 7.3s3.2 7.3 7.3 7.3zM621.3 274.5c4.2 0 7.5-3.4 7.5-7.5s-3.4-7.5-7.5-7.5-7.5 3.3-7.5 7.5c0 4.1 3.4 7.5 7.5 7.5zM596.4 274.6c3.9 0 7.1-3.2 7.1-7.1 0-3.9-3.2-7.1-7.1-7.1-3.9 0-7.1 3.2-7.1 7.1 0 3.9 3.2 7.1 7.1 7.1zM704.7 124.7c2.1 0 3.9-1.7 3.9-3.9 0-2.1-1.7-3.9-3.9-3.9-2.1 0-3.9 1.7-3.9 3.9s1.8 3.9 3.9 3.9zM776 301.8c.3 0 .6 0 .9-.1l.1-13.2c-.3 0-.6-.1-.9-.1-3.7 0-6.7 3-6.7 6.6s2.9 6.8 6.6 6.8zM706 217.3c3.8 0 7-3.1 7-7 0-3.8-3.1-7-7-7-3.8 0-7 3.1-7 7 .1 3.9 3.2 7 7 7zM571.2 344.8c0-3.5-2.8-6.3-6.3-6.3-2.7 0-4.9 1.7-5.9 4l2.6 7.7c.9.6 2 .9 3.2.9 3.6 0 6.4-2.8 6.4-6.3zM610.9 356.1zM705.4 167.3c2.9 0 5.3-2.4 5.3-5.3s-2.4-5.3-5.3-5.3-5.3 2.4-5.3 5.3 2.3 5.3 5.3 5.3zM662.1 288.3c-4.1 0-7.5 3.4-7.5 7.5s3.4 7.5 7.5 7.5c4.2 0 7.5-3.4 7.5-7.5.1-4.1-3.3-7.5-7.5-7.5zM676.7 258.6c-4.1 0-7.5 3.4-7.5 7.5s3.4 7.5 7.5 7.5c4.2 0 7.5-3.4 7.5-7.5s-3.4-7.5-7.5-7.5zM699.1 296.1c0-4.1-3.4-7.5-7.5-7.5s-7.5 3.4-7.5 7.5 3.4 7.5 7.5 7.5 7.5-3.3 7.5-7.5zM618.5 348.6c0-4.1-3.4-7.5-7.5-7.5s-7.5 3.4-7.5 7.5 3.4 7.5 7.5 7.5 7.5-3.3 7.5-7.5zM753.3 119.7c-1.9 0-3.5 1.6-3.5 3.5s1.6 3.5 3.5 3.5 3.5-1.6 3.5-3.5-1.6-3.5-3.5-3.5zM776.6 343.4c-.9-.4-1.9-.7-2.9-.7-3.6 0-6.5 2.9-6.5 6.4 0 3.6 2.9 6.5 6.4 6.5 1 0 2-.2 2.9-.7l.1-11.5zM765.1 442.9c2.4 0 4.4-2 4.4-4.4 0-2.4-2-4.4-4.4-4.4-2.4 0-4.4 2-4.4 4.4 0 2.4 2 4.4 4.4 4.4zM775.3 397.3c0-3.1-2.5-5.6-5.6-5.6-3.1 0-5.6 2.5-5.6 5.6 0 3.1 2.5 5.6 5.6 5.6 3.1 0 5.6-2.5 5.6-5.6zM755.4 425.3c3 0 5.5-2.5 5.5-5.5s-2.4-5.5-5.5-5.5c-3 0-5.5 2.4-5.5 5.5s2.5 5.5 5.5 5.5zM741.4 445.4c2.7 0 4.8-2.2 4.8-4.8 0-2.7-2.2-4.8-4.8-4.8-2.7 0-4.8 2.2-4.8 4.8 0 2.6 2.2 4.8 4.8 4.8zM750.8 399.2c0-3.4-2.8-6.2-6.2-6.2-3.4 0-6.2 2.8-6.2 6.2 0 3.4 2.8 6.2 6.2 6.2 3.4-.1 6.2-2.8 6.2-6.2zM655.6 125.8c1.7 0 3.2-1.2 3.7-2.8l-5.7 2.1c.5.5 1.2.7 2 .7zM497.4 396.6c1.2 0 2.2-1 2.2-2.2 0-.4-.1-.8-.4-1.2l-3.9 2c.4.8 1.2 1.4 2.1 1.4zM621.6 146.6c.3-.6.5-1.2.5-1.9 0-1.6-.9-3-2.2-3.8l1.7 5.7zM749.2 91.8c1.3 0 2.3-1 2.3-2.3 0-.2 0-.4-.1-.6l-4.3 1.6c.3.8 1.1 1.3 2.1 1.3zM778 80.7V79l-1.4.5c.1.7.7 1.2 1.4 1.2zM679.4 428.3c3.4 0 6.2-2.8 6.2-6.2 0-3.4-2.8-6.2-6.2-6.2-3.4 0-6.2 2.8-6.2 6.2 0 3.4 2.8 6.2 6.2 6.2zM678.2 384.6c4.2 0 7.5-3.4 7.5-7.5s-3.4-7.5-7.5-7.5-7.5 3.3-7.5 7.5 3.4 7.5 7.5 7.5zM667.7 446.9c3 0 5.4-2.4 5.4-5.4 0-3-2.4-5.4-5.4-5.4-3 0-5.4 2.4-5.4 5.4 0 2.9 2.4 5.4 5.4 5.4zM705 428.3c.1 0 .1 0 0 0 3.4 0 6.1-2.7 6.1-6.1 0-3.4-2.7-6.1-6.1-6.1-3.4 0-6.1 2.7-6.1 6.1 0 3.4 2.8 6.1 6.1 6.1zM730.5 427.3c3.3 0 5.9-2.6 5.9-5.9 0-3.2-2.6-5.9-5.8-5.9-3.2 0-5.9 2.6-5.9 5.8s2.6 6 5.8 6zM740.3 376.5c0-4.1-3.3-7.4-7.4-7.4-4.1 0-7.4 3.3-7.4 7.4s3.3 7.4 7.4 7.4c4.1 0 7.4-3.4 7.4-7.4zM705.7 369.7c-4.1 0-7.5 3.3-7.5 7.5 0 4.1 3.3 7.5 7.5 7.5s7.5-3.4 7.5-7.5-3.3-7.5-7.5-7.5zM711.9 441.7c0 2.8 2.3 5.1 5.1 5.1s5.1-2.3 5.1-5.1-2.3-5.1-5.1-5.1-5.1 2.3-5.1 5.1zM725.3 400.4c0-3.7-3-6.7-6.6-6.7-3.7 0-6.7 3-6.7 6.6s3 6.7 6.6 6.7c3.7 0 6.7-3 6.7-6.6zM665.6 407.2c3.9 0 7.1-3.2 7.1-7 0-3.9-3.1-7-7-7s-7.1 3.1-7.1 7c0 3.8 3.1 7 7 7zM590.7 447.8c-2.1 0-3.7 1.7-3.7 3.7 0 .9.4 1.8.9 2.4h5.6c.6-.7.9-1.5.9-2.4 0-2-1.6-3.7-3.7-3.7zM474.2 414.4c-.1 0-.2.1-.2.2s.1.2.2.2.2-.1.1-.2c.1-.2.1-.2-.1-.2.1 0 .1 0 0 0zM463.7 411.7s.1 0 0 0c0 0 0-.1 0 0 0-.1 0 0 0 0zM476.5 411.1c0 .3.2.6.5.6s.6-.2.6-.6c0-.3-.2-.5-.5-.6-.3 0-.6.3-.6.6zM778 452.9c-.6-.4-1.4-.7-2.2-.7-1.3 0-2.5.7-3.2 1.7h5.4v-1zM775 417.6c0 1.6.8 3 3 4v-7.9c-2.2.8-3 2.2-3 3.9zM479.3 421.1c0 .2.2.4.4.4s.4-.2.4-.4-.2-.4-.4-.4-.4.1-.4.4zM634 453.1c-.9 0-1.8.3-2.5.8h5c-.8-.5-1.6-.8-2.5-.8zM611.8 450.8c-1.9 0-3.6 1.4-4 3.2h7.9c-.4-1.9-2-3.2-3.9-3.2zM496 434.7c.5 0 1-.4 1-1 0-.5-.4-1-1-1-.5 0-1 .4-1 1 .1.5.5 1 1 1zM483.6 429.1s-.1 0 0 0c-.1.1 0 .2 0 .2s.1 0 .1-.1 0-.1-.1-.1zM497.8 409.4c0-1.1-.8-1.9-1.9-1.9-1.1 0-1.9.8-1.9 1.9 0 1.1.8 1.9 1.9 1.9 1 0 1.9-.8 1.9-1.9zM495.4 423.7c.7 0 1.2-.6 1.2-1.2 0-.7-.6-1.2-1.2-1.2-.7 0-1.2.6-1.2 1.2 0 .7.5 1.2 1.2 1.2zM493.7 442.7c-.1 0-.1.1-.1.1 0 .1.1.1.1.1.1 0 .1-.1.1-.1.1-.1 0-.1-.1-.1zM497.8 443.4c.3 0 .5-.2.5-.5s-.2-.5-.5-.5-.5.2-.4.5.1.5.4.5zM489.6 436.1c0 .1.1.3.3.3h.1c.1 0 .2-.1.2-.3 0-.1-.1-.2-.3-.2-.2 0-.3.1-.3.2zM486.2 416.9c0-.5-.4-.9-.9-.9s-.9.4-.9.9.4.9.9.9.9-.4.9-.9zM484.8 402.9c-.8 0-1.5.7-1.5 1.5s.7 1.5 1.5 1.5 1.5-.7 1.5-1.5-.7-1.5-1.5-1.5zM743 137.8c-2.3 0-4.2 1.9-4.2 4.1 0 2.3 1.9 4.2 4.1 4.2 2.3 0 4.2-1.9 4.2-4.2 0-2.2-1.8-4.1-4.1-4.1zM487 426.8c-.4 0-.7.3-.7.7 0 .4.3.7.7.7h.1c.4 0 .7-.3.7-.7-.1-.4-.4-.7-.8-.7zM641.7 137.9c-2.5 0-4.5 2-4.5 4.5s2 4.5 4.5 4.5 4.5-2 4.5-4.5c.1-2.4-1.9-4.5-4.5-4.5zM666.7 145.7c2.6 0 4.6-2.1 4.6-4.6 0-2.6-2.1-4.6-4.6-4.6-2.6 0-4.6 2.1-4.6 4.6s2.1 4.6 4.6 4.6zM643.1 211.4c0 3.8 3.1 6.9 6.9 6.9 3.8 0 6.9-3.1 6.9-6.9 0-3.8-3.1-6.9-6.9-6.9-3.8 0-6.9 3.1-6.9 6.9zM655.3 237.8c0 4.1 3.4 7.5 7.5 7.5 4.2 0 7.5-3.4 7.5-7.5s-3.4-7.5-7.5-7.5c-4.1-.1-7.5 3.3-7.5 7.5zM652.7 157.8c-2.9 0-5.3 2.4-5.3 5.3s2.4 5.3 5.3 5.3 5.3-2.4 5.3-5.3-2.3-5.3-5.3-5.3zM556.8 372.6c2.9 0 5.2-2.3 5.2-5.2 0-1.9-1.1-3.6-2.7-4.5l-7.7 3.9c0 .2-.1.4-.1.6.1 2.8 2.5 5.2 5.3 5.2zM633 184.1l2.6 8.5c.8.4 1.7.6 2.6.6 3.4 0 6.1-2.7 6.1-6.1 0-3.3-2.7-6.1-6.1-6.1-2.2.1-4.1 1.3-5.2 3.1zM522.7 433.2c0-1.1-.9-2.1-2.1-2.1-1.1 0-2.1.9-2.1 2.1s.9 2.1 2.1 2.1c1.2 0 2.1-.9 2.1-2.1zM627.5 159.8c-.6 0-1.2.1-1.7.3l2.9 9.6c2.2-.5 3.9-2.5 3.9-4.9-.1-2.7-2.3-5-5.1-5zM519.2 447.2c.9 0 1.7-.8 1.7-1.7 0-.9-.8-1.7-1.7-1.7-.9 0-1.7.8-1.7 1.7 0 .9.7 1.7 1.7 1.7zM727.3 211.1c0 3.7 3 6.7 6.6 6.7 3.7 0 6.7-3 6.7-6.7s-3-6.7-6.6-6.7c-3.7 0-6.7 3-6.7 6.7zM731.7 157.6c-2.8 0-5.1 2.3-5.2 5.1 0 2.8 2.3 5.1 5.1 5.2 2.8 0 5.1-2.3 5.1-5.1a5 5 0 0 0-5-5.2zM729.2 117.9c-2.1 0-3.7 1.7-3.7 3.7 0 2.1 1.7 3.7 3.7 3.7 2.1 0 3.7-1.7 3.7-3.7.1-2-1.6-3.7-3.7-3.7zM739.7 101.6c-1.6 0-2.9 1.3-2.9 2.9 0 1.6 1.3 2.9 2.9 2.9 1.6 0 2.9-1.3 2.9-2.9 0-1.6-1.3-2.9-2.9-2.9zM658.5 185.8c0 3.4 2.8 6.2 6.2 6.2 3.4 0 6.2-2.8 6.2-6.2 0-3.4-2.8-6.2-6.2-6.2-3.4 0-6.2 2.8-6.2 6.2zM706.7 258.5c-4.1 0-7.5 3.3-7.5 7.5s3.3 7.5 7.5 7.5 7.5-3.4 7.5-7.5-3.4-7.5-7.5-7.5zM713.4 237.5c0 4.1 3.3 7.4 7.4 7.4 4.1 0 7.4-3.3 7.4-7.4 0-4.1-3.3-7.4-7.4-7.4-4.1.1-7.4 3.4-7.4 7.4zM717.8 136.4c-2.4 0-4.4 2-4.4 4.4 0 2.4 2 4.4 4.4 4.4 2.4 0 4.4-2 4.4-4.4 0-2.4-2-4.4-4.4-4.4zM719.3 179.7c-3.2 0-5.9 2.6-5.9 5.9 0 3.2 2.6 5.9 5.9 5.9 3.2 0 5.9-2.6 5.9-5.9 0-3.3-2.6-5.9-5.9-5.9zM576.8 435.9c2.4 0 4.3-1.9 4.3-4.3s-1.9-4.3-4.3-4.3-4.3 1.9-4.3 4.3c0 2.3 1.9 4.3 4.3 4.3zM597.8 439.7c2.6 0 4.8-2.1 4.8-4.8 0-2.6-2.1-4.7-4.7-4.8-2.6 0-4.8 2.1-4.8 4.7-.1 2.8 2.1 4.9 4.7 4.9zM523.2 421.9c1.6 0 2.9-1.3 2.9-2.9 0-1.6-1.3-2.9-2.9-2.9-1.6 0-2.9 1.3-2.9 2.9 0 1.6 1.3 2.9 2.9 2.9zM583.8 418.8c2.7 0 4.9-2.2 4.9-4.9s-2.2-4.9-4.9-4.9-4.9 2.2-4.9 4.9c0 2.6 2.2 4.8 4.9 4.9zM591.8 400.1c3.3 0 6-2.7 6-6s-2.7-6-6-6-6 2.7-6 6 2.7 6 6 6zM605.9 422.2c.1 0 .1 0 0 0 3 0 5.4-2.4 5.4-5.4 0-3-2.4-5.4-5.4-5.4-3 0-5.4 2.4-5.4 5.4.1 3 2.5 5.4 5.4 5.4zM620.1 442.9c2.8 0 5.1-2.3 5.1-5.1s-2.3-5-5-5.1c-2.8 0-5.1 2.3-5.1 5a5 5 0 0 0 5 5.2zM643.4 445.3c.1 0 .1 0 0 0 2.9 0 5.3-2.4 5.3-5.3s-2.4-5.3-5.3-5.3-5.3 2.4-5.3 5.3c0 3 2.4 5.3 5.3 5.3zM639.8 405.6c3.8 0 6.9-3.1 6.9-6.9 0-3.8-3.1-6.9-6.9-6.9-3.8 0-6.9 3.1-6.9 6.9 0 3.8 3.1 6.9 6.9 6.9zM629.4 425.1c3.2 0 5.8-2.6 5.8-5.8 0-3.2-2.6-5.8-5.8-5.8-3.2 0-5.8 2.6-5.8 5.8s2.6 5.8 5.8 5.8zM615.1 403.2c3.6 0 6.5-2.9 6.5-6.5s-2.9-6.5-6.5-6.5-6.5 2.9-6.6 6.5c.1 3.6 3 6.5 6.6 6.5zM531.6 388.8c2.3 0 4.2-1.9 4.2-4.2 0-2.3-1.9-4.2-4.2-4.2-2.3 0-4.2 1.9-4.2 4.2 0 2.4 1.9 4.2 4.2 4.2zM533.2 453c1.1 0 2.1-.9 2.1-2.1 0-1.1-.9-2.1-2.1-2.1-1.1 0-2.1.9-2.1 2.1s1 2.1 2.1 2.1zM526.8 406.1c1.8 0 3.3-1.5 3.3-3.3 0-1.8-1.5-3.3-3.3-3.3-1.8 0-3.3 1.5-3.3 3.3.1 1.8 1.5 3.3 3.3 3.3zM539.5 426.9c1.9 0 3.4-1.5 3.4-3.4s-1.5-3.4-3.4-3.4-3.4 1.5-3.4 3.4c0 1.8 1.5 3.4 3.4 3.4zM557.3 431.5c.1 0 .1 0 0 0 2.1 0 3.9-1.7 3.9-3.9 0-2.1-1.7-3.9-3.9-3.9-2.1 0-3.9 1.7-3.9 3.9s1.8 3.9 3.9 3.9zM654 427.2c3.4 0 6.1-2.7 6.1-6.1 0-3.3-2.7-6.1-6.1-6.1-3.4 0-6.1 2.7-6.1 6.1.1 3.3 2.8 6.1 6.1 6.1zM544.2 410.5c2.1 0 3.8-1.7 3.8-3.8 0-2.1-1.7-3.8-3.8-3.8-2.1 0-3.8 1.7-3.8 3.8s1.7 3.8 3.8 3.8zM563.2 414.8c2.4 0 4.4-2 4.4-4.4 0-2.4-2-4.4-4.4-4.4-2.4 0-4.4 2-4.4 4.4 0 2.4 2 4.4 4.4 4.4zM550 392.8c2.7 0 4.8-2.2 4.8-4.8 0-2.7-2.2-4.8-4.8-4.8-2.7 0-4.8 2.2-4.8 4.8-.1 2.7 2.1 4.9 4.8 4.8z"/><path id="Фигура_521-3" class="st1" d="M778 389s-113.1-32.4-160-44c-20.9-45.6-56-108-56-108l-160-36-63-122-170-2L0 0h778v389z"/><g><path class="st2" d="M692.9 365.1c6 1.7 12 3.4 17.8 5 10.6-25 14.2-54.8 48.7-40.3 6.7 2.8 12.5 6.5 17.7 10.8l.1-30.6c-5.3-4.5-11.2-8.4-17.9-11.4-45.7-19.8-38.2 45-66.4 66.5zM571.5 254.3c5.1 9.3 11.7 21.6 18.8 35.1 17.2 15.6 30.6 38.6 42.6 59.4 3.9 1 8.1 2.1 12.4 3.3-20.5-26.8-41.9-74-73.8-97.8zM631 125.5c77.7 25.9 75.1-138.3 127.2-108.2 7.4 4.3 13.9 10.2 19.7 17.1L778 5c-1.4-1.7-2.8-3.4-4.3-5h-49.5c-23.8 36.7-39.7 120.3-97.8 99.4C591.4 86.8 548.6 41 502.8 0h-22.1C536.8 44.8 589.1 111.5 631 125.5zM758.1 383.2c-1.4-.3-2.8-.6-4.1-.8 6.7 1.9 12.2 3.5 16.2 4.6-3.8-1.4-7.8-2.7-12.1-3.8z"/><path class="st2" d="M759 347.5c-26.4-9.6-34.9 5.8-43.2 24.1l8.4 2.4c7.4-9 17.2-13.9 34.4-8.7 6.9 2.1 13 4.9 18.5 8.2v-16.4c-5.4-3.9-11.4-7.2-18.1-9.6zM299.7 0H118c44.1 15.8 116.5 31.7 181.7 0zM758.5 110.6c-52.7-27.9-44.2 112.9-113.3 96.5-69-16.4-155-229.1-273.2-128-7.8 6.7-15.8 12.5-23.9 17.6l16.5 32c7-4.7 13.9-10 20.6-15.8C507 6.8 584 221.5 650.1 234.7c66.1 13.3 55.7-119.8 108.6-92.6 7.1 3.7 13.4 8.6 18.9 14.4l.1-30.9c-5.6-6-11.9-11.2-19.2-15z"/><path class="st2" d="M664.4 317.2c-56.4-3.7-105.5-216.8-232.8-109.5l46.6 10.5c104.5-52 142.2 125.9 190.9 126.4 54.5.6 36.3-101.3 90-77 6.8 3.1 12.8 7.2 18.1 12l.1-30.7c-5.4-5-11.4-9.3-18.3-12.5-53.4-25.1-37.2 84.6-94.6 80.8z"/><path class="st2" d="M758.8 173.6c-53.1-26.4-40.7 98.8-103.9 88.7-63.2-10.1-131.1-226.7-256.4-115.8-5.7 5.1-11.5 9.7-17.4 13.9l16.3 31.6c4.9-3.7 9.6-7.6 14.4-11.9 128.8-115.8 187.7 102.8 248 109.7s46-110.5 99.3-84.8c7 3.4 13.1 7.9 18.5 13.2l.1-30.8c-5.7-5.6-11.8-10.3-18.9-13.8z"/></g></g></g></switch></svg>