<svg xmlns="http://www.w3.org/2000/svg" viewBox="0 0 548.4 454.9" width="548.4" height="454.9"><style>.st1{fill:#75ba97}.st2{opacity:.37;fill:#c0d5c4;enable-background:new}</style><switch><g><path id="Фигура_520-4" d="M389.4 0l-186 95 27 79-102 74 21 69-149 59L0 0h389.4z" fill="#fdece9"/><path class="st1" d="M48.2 95.7c-4.1 0-7.5 3.4-7.5 7.5s3.4 7.5 7.5 7.5 7.5-3.4 7.5-7.5-3.3-7.5-7.5-7.5zM197.2 110.2c0 3.5 2.8 6.3 6.3 6.3 2.7 0 4.9-1.7 5.9-4l-2.6-7.7c-.9-.6-2-.9-3.2-.9-3.6 0-6.4 2.8-6.4 6.3zM22.3 273.7c3 0 5.5-2.4 5.5-5.5 0-3-2.4-5.5-5.5-5.5-3 0-5.5 2.5-5.5 5.5 0 3.1 2.5 5.5 5.5 5.5zM62 137.5c4.1 0 7.5-3.3 7.5-7.5 0-4.1-3.3-7.5-7.5-7.5s-7.5 3.4-7.5 7.5c0 4.2 3.3 7.5 7.5 7.5zM46.9 166.6c4.1 0 7.5-3.3 7.5-7.5 0-4.1-3.3-7.5-7.5-7.5s-7.5 3.4-7.5 7.5 3.4 7.5 7.5 7.5zM40.2 188.5c0-4.1-3.4-7.5-7.5-7.5-4.2 0-7.5 3.4-7.5 7.5s3.4 7.5 7.5 7.5 7.5-3.3 7.5-7.5zM83.7 130.1c0 4.1 3.4 7.5 7.5 7.5s7.5-3.3 7.5-7.5c0-4.1-3.3-7.5-7.5-7.5-4.1 0-7.5 3.4-7.5 7.5zM160.9 82.6c0 3.7 3 6.6 6.6 6.6 3.7 0 6.6-3 6.6-6.6 0-3.7-3-6.6-6.6-6.6-3.6 0-6.6 3-6.6 6.6zM91.2 122.6zM69 102.9c0 4.1 3.4 7.5 7.5 7.5s7.5-3.3 7.5-7.5c0-4.1-3.3-7.5-7.5-7.5-4.1 0-7.5 3.4-7.5 7.5zM62 122.5zM.1 102.3v7c.7-1 1-2.2 1-3.5.1-1.2-.3-2.5-1-3.5zM42.8 78.5c0-4.1-3.3-7.4-7.4-7.4-4.1 0-7.4 3.3-7.4 7.4 0 4.1 3.3 7.4 7.4 7.4 4.1 0 7.4-3.3 7.4-7.4zM6.1 139.2c4.1 0 7.5-3.4 7.5-7.5s-3.4-7.5-7.5-7.5c-2.5 0-4.7 1.2-6 3v8.9c1.4 1.9 3.6 3.1 6 3.1zM25.8 130.7c0 4.1 3.4 7.5 7.5 7.5s7.5-3.3 7.5-7.5c0-4.1-3.3-7.5-7.5-7.5-4.1 0-7.5 3.3-7.5 7.5zM19.6 223.3c3.8 0 6.8-3 6.8-6.8s-3-6.8-6.8-6.8-6.8 3-6.8 6.8c0 3.7 3.1 6.8 6.8 6.8zM33.3 123.2zM18.7 167c4.1 0 7.5-3.4 7.5-7.5s-3.4-7.5-7.5-7.5c-4.2 0-7.5 3.4-7.5 7.5s3.4 7.5 7.5 7.5zM5.4 195.3c4 0 7.3-3.2 7.3-7.2s-3.2-7.3-7.2-7.3c-2.1 0-3.9.9-5.2 2.2v10.1c1.2 1.4 3 2.2 5.1 2.2zM.1 52.3v10.8c2.4-.6 4.2-2.8 4.2-5.4 0-2.6-1.8-4.8-4.2-5.4zM9.2 73.2c-3.8 0-6.8 3-6.8 6.8 0 3.7 3 6.8 6.8 6.8s6.8-3 6.8-6.8c0-3.7-3-6.8-6.8-6.8zM147 195.4c4.1 0 7.5-3.4 7.5-7.5s-3.4-7.5-7.5-7.5c-4.2 0-7.5 3.4-7.5 7.5 0 4.2 3.4 7.5 7.5 7.5zM206 167.3c3.6 0 6.5-2.9 6.5-6.5s-2.9-6.5-6.5-6.5-6.5 2.9-6.5 6.5 2.9 6.5 6.5 6.5zM198.3 58.3c-3 0-5.5 2.5-5.5 5.5s2.4 5.5 5.5 5.5c3 0 5.5-2.4 5.5-5.5s-2.5-5.5-5.5-5.5zM190.4 79.1c-3.3 0-5.9 2.7-6 5.9 0 3.3 2.7 5.9 5.9 5.9 3.3 0 5.9-2.7 6-5.9 0-3.3-2.6-5.9-5.9-5.9zM187.8 134.5c0 3.6 2.9 6.5 6.5 6.5s6.5-2.9 6.5-6.5-2.9-6.5-6.5-6.5-6.5 2.9-6.5 6.5zM195.1 193.3c3.5 0 6.3-2.8 6.3-6.3s-2.8-6.3-6.3-6.3-6.3 2.8-6.3 6.3c0 3.4 2.8 6.2 6.3 6.3zM176.6 54.9c-3.3 0-6 2.7-6 6s2.7 6 6 6 6-2.7 6-6-2.7-6-6-6zM157.4 98.8c-4.2 0-7.5 3.4-7.5 7.5s3.4 7.5 7.5 7.5 7.5-3.3 7.5-7.5-3.3-7.5-7.5-7.5zM181.3 101.1c-3.9 0-7.1 3.2-7.1 7.1 0 3.9 3.2 7.1 7.1 7.1 3.9 0 7.1-3.2 7.1-7.1 0-3.9-3.1-7.1-7.1-7.1zM209.9 135.8c0 3.1 2.5 5.6 5.6 5.6 1.2 0 2.4-.4 3.3-1.1l-3.5-10.2c-2.9.1-5.4 2.6-5.4 5.7zM191.1 160.4c0-4.1-3.3-7.3-7.3-7.4-4.1 0-7.3 3.3-7.3 7.3 0 4.1 3.3 7.3 7.3 7.3 4 .1 7.3-3.1 7.3-7.2zM143 73.2c-4 0-7.3 3.2-7.3 7.3 0 4 3.2 7.3 7.2 7.3s7.3-3.2 7.3-7.2c.1-4.1-3.2-7.3-7.2-7.4zM119.6 123.4c-4.2 0-7.5 3.4-7.5 7.5s3.4 7.5 7.5 7.5 7.5-3.4 7.5-7.5-3.4-7.5-7.5-7.5zM133.9 167.1c4.1 0 7.5-3.3 7.5-7.5 0-4.1-3.3-7.5-7.5-7.5s-7.5 3.4-7.5 7.5 3.3 7.5 7.5 7.5zM146.2 124.5c-4.2 0-7.5 3.4-7.5 7.5s3.4 7.5 7.5 7.5 7.5-3.4 7.5-7.5c.1-4.1-3.3-7.5-7.5-7.5zM226.4 166.9c.5 0 1-.1 1.5-.2l-3.6-10.7c-2 .9-3.5 2.9-3.5 5.2 0 3.1 2.5 5.7 5.6 5.7zM172 194.5c3.9 0 7.1-3.2 7.1-7.1 0-3.9-3.2-7.1-7.1-7.1-3.9 0-7.1 3.2-7.1 7.1 0 4 3.1 7.1 7.1 7.1zM159.8 152.5c-4.2 0-7.5 3.4-7.5 7.5s3.4 7.5 7.5 7.5 7.5-3.3 7.5-7.5-3.4-7.5-7.5-7.5zM131.8 97.2c-4.2 0-7.5 3.4-7.5 7.5s3.4 7.5 7.5 7.5 7.5-3.3 7.5-7.5c0-4.1-3.3-7.5-7.5-7.5zM158.8 222.2c4 0 7.3-3.2 7.3-7.2s-3.2-7.3-7.2-7.3-7.3 3.2-7.3 7.3c0 4 3.2 7.2 7.2 7.2zM171.2 125.9c-4.1 0-7.3 3.3-7.3 7.3 0 4.1 3.3 7.3 7.3 7.3 4.1 0 7.3-3.3 7.4-7.3-.1-4-3.4-7.3-7.4-7.3zM294.1 40.3c-.1 0-.2.1-.2.2s.1.2.2.2.2-.1.2-.2-.1-.2-.2-.2zM84.5 333.9c0 2.1 1.7 3.9 3.9 3.9 2.1 0 3.9-1.7 3.9-3.9 0-2.1-1.7-3.9-3.9-3.9-2.2.1-3.9 1.8-3.9 3.9zM88.4 330.1zM272.3 20.3c-.5 0-1 .4-1 1 0 .5.4 1 1 1 .5 0 1-.4 1-1 0-.5-.4-1-1-1zM94.9 292.8c0-3-2.4-5.4-5.4-5.4-3 0-5.4 2.4-5.4 5.4 0 3 2.4 5.4 5.4 5.4 3 0 5.4-2.4 5.4-5.4zM273 31.2c-.7 0-1.2.6-1.2 1.2 0 .7.6 1.2 1.2 1.2.7 0 1.2-.6 1.2-1.2s-.5-1.2-1.2-1.2zM82.5 269.7c0-3.4-2.7-6.1-6.1-6.1-3.4 0-6.1 2.7-6.1 6.1 0 3.4 2.7 6.1 6.1 6.1 3.4 0 6.1-2.7 6.1-6.1zM270.6 11.6c-.3 0-.5.2-.5.5s.2.5.5.5.5-.2.5-.5-.3-.5-.5-.5zM71.6 314.4c0 2.5 2 4.5 4.5 4.5s4.5-2 4.5-4.5-2-4.5-4.5-4.5-4.5 2-4.5 4.5zM97.7 244.5c0-3.9-3.1-7.1-7-7.1s-7.1 3.2-7.1 7c0 3.9 3.1 7 7 7 3.9.1 7.1-3.1 7.1-6.9zM76.1 309.9zM13.5 104.3c0 4 3.2 7.3 7.2 7.3s7.3-3.2 7.3-7.2-3.2-7.3-7.2-7.3c-4.1 0-7.3 3.2-7.3 7.2zM288.6 33.5c-.2 0-.4.2-.4.4s.2.4.4.4.4-.2.4-.4-.2-.4-.4-.4zM283.6 52.1c.8 0 1.5-.7 1.5-1.5s-.7-1.5-1.5-1.5-1.5.7-1.5 1.5.7 1.5 1.5 1.5zM283.9 38.1c0-.5-.4-.9-.9-.9s-.9.4-.9.9.4.9.9.9.9-.4.9-.9zM76.7 210.2zM291.3 43.3c-.3 0-.6.2-.6.6 0 .3.2.6.6.6s.6-.2.6-.6-.3-.6-.6-.6zM272.5 47.5c1.1 0 1.9-.9 1.9-1.9 0-1.1-.9-1.9-1.9-1.9-1.1 0-1.9.9-1.9 1.9 0 1 .9 1.9 1.9 1.9zM284.8 25.9c0-.1 0-.1 0 0-.1-.1-.2 0-.2 0h.2zM274.6 12.1c-.1 0-.1.1-.1.1 0 .1.1.1.1.1.1 0 .1-.1.1-.1.1-.1 0-.1-.1-.1zM278.5 18.6c-.1 0-.3.1-.3.3 0 .1.1.3.3.3.1 0 .3-.1.3-.3 0-.2-.1-.3-.3-.3zM281.3 26.9c-.4 0-.7.3-.7.7 0 .4.3.7.7.7.4 0 .7-.3.7-.7s-.3-.7-.7-.7zM249.6.3c.3 0 .6-.1.8-.3h-1.5c.2.2.4.3.7.3zM230.1 16.8c0 1.4 1.1 2.5 2.5 2.5s2.5-1.1 2.5-2.5-1.1-2.5-2.5-2.5-2.5 1.1-2.5 2.5zM228.9 28.1c-1.9 0-3.4 1.5-3.4 3.4s1.5 3.4 3.4 3.4 3.4-1.5 3.4-3.4-1.5-3.4-3.4-3.4zM224.2 44.4c-2.1 0-3.8 1.7-3.8 3.8 0 2.1 1.7 3.8 3.8 3.8 2.1 0 3.8-1.7 3.8-3.8 0-2-1.7-3.8-3.8-3.8zM235.2 2c-1.1 0-2.1.9-2.1 2.1 0 1.1.9 2.1 2.1 2.1 1.1 0 2.1-.9 2.1-2.1s-1-2.1-2.1-2.1zM236.8 66.1c-2.3 0-4.2 1.9-4.2 4.2 0 2.3 1.9 4.2 4.2 4.2 2.3 0 4.2-1.9 4.2-4.2 0-2.3-1.9-4.2-4.2-4.2zM211 23.5c-2.1 0-3.9 1.7-3.9 3.9 0 2.1 1.7 3.9 3.9 3.9 2.1 0 3.9-1.7 3.9-3.9s-1.8-3.9-3.9-3.9zM241.5 48.9c-1.8 0-3.3 1.5-3.3 3.3 0 1.8 1.5 3.3 3.3 3.3 1.8 0 3.3-1.5 3.3-3.3s-1.5-3.3-3.3-3.3zM205.2 40.2c-2.4 0-4.4 2-4.4 4.4 0 2.4 2 4.4 4.4 4.4 2.4 0 4.4-1.9 4.4-4.4 0-2.4-2-4.4-4.4-4.4zM218.4 62.1c-2.7 0-4.8 2.2-4.8 4.8 0 2.7 2.2 4.8 4.8 4.8 2.7 0 4.8-2.2 4.8-4.8 0-2.6-2.1-4.8-4.8-4.8zM76.7 210.2c-4.2 0-7.5 3.4-7.5 7.5s3.4 7.5 7.5 7.5 7.5-3.4 7.5-7.5-3.4-7.5-7.5-7.5zM215.8 9.2c-1.6 0-2.9 1.3-2.9 2.9 0 1.6 1.3 2.9 2.9 2.9 1.6 0 2.9-1.3 2.9-2.9 0-1.6-1.3-2.9-2.9-2.9zM62.4 237.6c-3.9 0-7 3.1-7 7 0 3.8 3.1 7 6.9 7 3.8 0 7-3.1 7-6.9 0-4-3.1-7.1-6.9-7.1zM76.3 61.3c3.8 0 7-3.1 7-6.9 0-3.8-3.1-7-6.9-7-3.8 0-7 3.1-7 7-.1 3.7 3 6.9 6.9 6.9zM63.7 330.2c-2.1 0-3.9 1.7-3.9 3.9 0 2.1 1.7 3.9 3.9 3.9 2.1 0 3.9-1.7 3.9-3.9-.1-2.2-1.8-3.9-3.9-3.9zM63 287.6c-2.9 0-5.3 2.4-5.3 5.3s2.4 5.3 5.3 5.3 5.3-2.4 5.3-5.3-2.4-5.3-5.3-5.3zM76 18.2c2.9 0 5.3-2.4 5.3-5.3S78.9 7.6 76 7.6s-5.3 2.4-5.3 5.3c0 3 2.4 5.3 5.3 5.3zM245.6 21.8c0 1.1.9 2.1 2.1 2.1 1.1 0 2.1-.9 2.1-2.1s-.9-2.1-2.1-2.1c-1.1 0-2.1.9-2.1 2.1z"/><circle class="st1" cx="249.2" cy="9.5" r="1.7"/><path class="st1" d="M187.2 23.5c0 2.4 1.9 4.3 4.3 4.3s4.3-1.9 4.3-4.3-1.9-4.3-4.3-4.3c-2.4-.1-4.3 1.9-4.3 4.3zM245.2 33.1c-1.6 0-2.9 1.3-2.9 2.9 0 1.6 1.3 2.9 2.9 2.9 1.6 0 2.9-1.3 2.9-2.9s-1.3-2.9-2.9-2.9zM3.2 348.3c0 1.5 1.2 2.7 2.7 2.7 1.5 0 2.7-1.2 2.7-2.7s-1.2-2.7-2.7-2.7c-1.5.1-2.7 1.3-2.7 2.7zM109.9 269.2c0-3.4-2.8-6.2-6.2-6.2-3.4 0-6.2 2.8-6.2 6.2 0 3.4 2.8 6.2 6.2 6.2 3.4 0 6.1-2.8 6.2-6.2zM97 313.9c0 2.6 2.1 4.6 4.6 4.6 2.6 0 4.6-2.1 4.6-4.6 0-2.6-2.1-4.6-4.6-4.6-2.5-.1-4.6 2-4.6 4.6zM101.6 309.2h.1zM61.7 196.4c4.1 0 7.5-3.3 7.5-7.5 0-4.1-3.3-7.5-7.5-7.5s-7.5 3.4-7.5 7.5c0 4.2 3.4 7.5 7.5 7.5zM52.1 354.7c1.7 0 3.1-1.4 3.1-3.1 0-1.7-1.4-3.1-3.1-3.1-1.7 0-3.1 1.4-3.1 3.1.1 1.7 1.4 3.1 3.1 3.1zM115.6 297.1c2.9 0 5.3-2.4 5.3-5.3s-2.4-5.3-5.3-5.3-5.3 2.4-5.3 5.3 2.4 5.3 5.3 5.3zM113 217.2c0-4.1-3.4-7.5-7.5-7.5-4.2 0-7.5 3.4-7.5 7.5s3.4 7.5 7.5 7.5c4.2 0 7.5-3.4 7.5-7.5zM125.2 243.5c0-3.8-3.1-6.9-6.9-6.9-3.8 0-6.9 3.1-6.9 6.9 0 3.8 3.1 6.9 6.9 6.9 3.8 0 6.9-3.1 6.9-6.9zM126.6 317c2.5 0 4.5-2 4.5-4.5s-2-4.5-4.5-4.5-4.5 2-4.5 4.5 2 4.5 4.5 4.5zM50.6 318.5c2.4 0 4.4-2 4.4-4.4 0-2.4-2-4.4-4.4-4.4-2.4 0-4.4 2-4.4 4.4 0 2.5 1.9 4.4 4.4 4.4zM25.4 308.8zM28.7 353.3c1.6 0 2.9-1.3 2.9-2.9 0-1.6-1.3-2.9-2.9-2.9-1.6 0-2.9 1.3-2.9 2.9 0 1.6 1.3 2.9 2.9 2.9zM25.4 317.1c2.3 0 4.2-1.9 4.2-4.2 0-2.3-1.9-4.2-4.2-4.2-2.3 0-4.2 1.9-4.2 4.2 0 2.3 1.9 4.2 4.2 4.2zM50.6 309.7zM135.3 270.9l-2.6-8.5c-.8-.4-1.7-.6-2.6-.6-3.4 0-6.1 2.7-6.1 6.1 0 3.3 2.7 6.1 6.1 6.1 2.2-.1 4.2-1.3 5.2-3.1zM41.1 243.8a6.7 6.7 0 1 0-13.4 0 6.7 6.7 0 0 0 13.4 0zM19.2 367.8c1.3 0 2.3-1 2.3-2.3 0-1.3-1-2.3-2.3-2.3-1.3 0-2.3 1-2.3 2.3 0 1.3 1 2.3 2.3 2.3zM36.7 297.3c2.8 0 5.1-2.3 5.1-5.1s-2.3-5.1-5.1-5.1-5.1 2.3-5.1 5.1 2.3 5.1 5.1 5.1zM49 275.3c3.2 0 5.9-2.6 5.9-5.8 0-3.2-2.6-5.9-5.8-5.9-3.2 0-5.9 2.6-5.9 5.9 0 3.1 2.6 5.7 5.8 5.8zM54.9 217.4c0-4.1-3.3-7.4-7.4-7.4-4.1 0-7.4 3.3-7.4 7.4 0 4.1 3.3 7.4 7.4 7.4 4.1 0 7.4-3.3 7.4-7.4zM39.1 337c2.1 0 3.7-1.7 3.7-3.7 0-2.1-1.7-3.7-3.7-3.7-2.1 0-3.7 1.7-3.7 3.7s1.7 3.7 3.7 3.7zM112.8 329.1c-2.1 0-3.8 1.7-3.8 3.8l6.6-2.6c-.7-.7-1.7-1.2-2.8-1.2zM17 1.6c1.3 0 2.5-.6 3.3-1.6h-6.5c.7 1 1.9 1.6 3.2 1.6zM4.9 311c0-2.1-1.7-3.8-3.8-3.8-.3 0-.5 0-.8.1v7.5c.3.1.5.1.8.1 2.1-.1 3.8-1.8 3.8-3.9zM1.1 307.1zM134.5 2.4c1.7 0 3.2-1 3.9-2.4h-7.8c.7 1.4 2.2 2.4 3.9 2.4zM40.3.2c.5 0 .9-.1 1.3-.2H39c.4.1.8.2 1.3.2zM111.4.7c.9 0 1.7-.3 2.4-.7H109c.7.5 1.5.7 2.4.7zM270.9 58.4c-1.2 0-2.2 1-2.2 2.2 0 .3.1.6.2.9l3.9-2c-.3-.7-1-1.1-1.9-1.1zM146.8 308.3c-.3.6-.5 1.2-.5 2 0 1.6.9 3 2.2 3.8l-1.7-5.8zM112.8 329.1zM15.1 335.2c1.9 0 3.5-1.6 3.5-3.5s-1.6-3.5-3.5-3.5-3.5 1.6-3.5 3.5 1.6 3.5 3.5 3.5zM260.9 4.8c-.4 0-.8.3-.8.8 0 .4.3.8.8.8.4 0 .8-.3.8-.8s-.3-.8-.8-.8zM260.2 15.3c0 .7.6 1.4 1.4 1.4.8 0 1.4-.6 1.4-1.4s-.6-1.4-1.4-1.4c-.7 0-1.4.7-1.4 1.4zM140.9 295.1c.6 0 1.2-.1 1.7-.3l-2.9-9.6c-2.2.5-3.9 2.5-3.9 4.9 0 2.7 2.3 5 5.1 5zM259.5 27c0 .9.7 1.7 1.7 1.7.9 0 1.7-.7 1.7-1.7 0-.9-.7-1.7-1.7-1.7-.9.1-1.7.8-1.7 1.7zM211.5 82.4c-2.9 0-5.2 2.3-5.2 5.2 0 1.9 1.1 3.6 2.6 4.5l7.8-4c0-.2.1-.4.1-.5-.1-2.8-2.4-5.2-5.3-5.2zM257.1 53.6c-1.5 0-2.7 1.2-2.7 2.7 0 1.5 1.2 2.7 2.7 2.7 1.5 0 2.7-1.2 2.7-2.7s-1.2-2.7-2.7-2.7zM257.3 40.7c0 1.3 1.1 2.4 2.4 2.4 1.3 0 2.4-1.1 2.4-2.4 0-1.3-1.1-2.4-2.4-2.4-1.3 0-2.4 1.1-2.4 2.4zM219.5 1.3c1 0 1.8-.6 2.2-1.3h-4.4c.5.8 1.3 1.3 2.2 1.3zM267.8 4.6c-.2 0-.3.1-.3.3 0 .2.1.3.3.3.2 0 .3-.1.3-.3 0-.2-.2-.3-.3-.3zM152.6.7c0 2.3 1.8 4.1 4.1 4.1s4.1-1.8 4.1-4.1c0-.2 0-.4-.1-.7h-8c-.1.2-.1.4-.1.7zM17.5 55.8c0 3.4 2.7 6.1 6.1 6.2 3.4 0 6.2-2.7 6.2-6.1 0-3.4-2.7-6.2-6.1-6.2-3.4-.1-6.1 2.7-6.2 6.1zM170.6 15.3c-2.6 0-4.8 2.1-4.8 4.8 0 2.6 2.1 4.7 4.7 4.8 2.6 0 4.8-2.1 4.8-4.7s-2.1-4.9-4.7-4.9zM162.4 32.8c-3 0-5.4 2.4-5.4 5.4 0 3 2.4 5.4 5.4 5.4 3 0 5.4-2.4 5.4-5.4 0-3-2.4-5.4-5.4-5.4zM177.7.2c-2.1 0-3.7 1.7-3.7 3.7 0 2.1 1.7 3.7 3.7 3.7 2.1 0 3.7-1.7 3.7-3.7.1-2-1.6-3.7-3.7-3.7zM197.5 4.4c-1.9 0-3.4 1.5-3.4 3.4 0 1.8 1.5 3.3 3.3 3.4 1.9 0 3.4-1.5 3.4-3.3s-1.5-3.5-3.3-3.5zM179.6 41.2c0 2.7 2.2 4.9 4.9 4.9s4.9-2.2 4.9-4.9-2.2-4.9-4.9-4.9c-2.7-.1-4.9 2.1-4.9 4.9zM146.7 58.3c0 3.6 2.9 6.5 6.5 6.5s6.5-2.9 6.5-6.5-2.9-6.5-6.5-6.5-6.5 2.9-6.5 6.5zM121.6 56.3c0 3.8 3.1 6.9 6.9 6.9 3.8 0 6.9-3.1 6.9-6.9 0-3.8-3.1-6.9-6.9-6.9-3.8-.1-6.9 3-6.9 6.9zM216.4 181c-3.1 0-5.5 2.5-5.5 5.5 0 .5.1 1 .2 1.5l8.4-6.1c-.9-.6-2-.9-3.1-.9zM138.9 29.9c-3.2 0-5.8 2.6-5.8 5.8 0 3.2 2.6 5.8 5.8 5.8 3.2 0 5.8-2.6 5.8-5.8 0-3.2-2.6-5.8-5.8-5.8zM153.2 51.8zM148.3 12.1c-2.8 0-5.1 2.3-5.1 5 0 2.8 2.3 5 5 5 2.8 0 5.1-2.3 5.1-5s-2.2-5-5-5zM91.7 196.3c4.1 0 7.5-3.3 7.5-7.5 0-4.1-3.3-7.5-7.5-7.5s-7.5 3.4-7.5 7.5c0 4.2 3.3 7.5 7.5 7.5zM76.8 166.4c4.1 0 7.5-3.4 7.5-7.5s-3.4-7.5-7.5-7.5c-4.2 0-7.5 3.4-7.5 7.5s3.3 7.4 7.5 7.5zM16 290.6c0-2.7-2.2-4.8-4.8-4.8-2.7 0-4.8 2.2-4.8 4.8 0 2.7 2.2 4.8 4.8 4.8 2.6.1 4.8-2.1 4.8-4.8zM104.7 96c-4.2 0-7.5 3.4-7.5 7.5s3.4 7.5 7.5 7.5 7.5-3.3 7.5-7.5-3.4-7.5-7.5-7.5zM176.3 213.2l8.2-5.9c-.5-.1-1-.2-1.6-.2-3.5 0-6.4 2.7-6.6 6.1zM120.2 195.9c4.1 0 7.5-3.3 7.5-7.5s-3.3-7.5-7.5-7.5-7.5 3.4-7.5 7.5 3.4 7.5 7.5 7.5zM144.7 235.5c-3.2 0-5.8 2.2-6.4 5.2l7.2-5.2h-.8zM133 223.7c4.1 0 7.5-3.3 7.5-7.5 0-4.1-3.3-7.5-7.5-7.5s-7.5 3.4-7.5 7.5 3.4 7.5 7.5 7.5zM133 208.7zM106.2 166.7c4.1 0 7.5-3.3 7.5-7.5 0-4.1-3.3-7.5-7.5-7.5s-7.5 3.4-7.5 7.5 3.4 7.5 7.5 7.5zM117.1 71.3c-4.2 0-7.5 3.4-7.5 7.5s3.4 7.5 7.5 7.5 7.5-3.3 7.5-7.5c0-4.1-3.3-7.4-7.5-7.5zM23.7 49.6v.1-.1zM26.9 19.3c2.7 0 4.8-2.2 4.8-4.8 0-2.7-2.2-4.8-4.8-4.8-2.7 0-4.8 2.2-4.8 4.8 0 2.6 2.1 4.8 4.8 4.8zM56.4 13.3c0-2.8-2.3-5.1-5.1-5.1s-5.1 2.3-5.1 5.1 2.3 5.1 5.1 5.1 5.1-2.3 5.1-5.1zM37.8 27.7c-3.2 0-5.9 2.6-5.9 5.9 0 3.2 2.6 5.9 5.8 5.9 3.2 0 5.9-2.6 5.9-5.8.1-3.4-2.5-6-5.8-6zM43.1 54.6a6.7 6.7 0 1 0 6.7-6.7c-3.7.1-6.7 3-6.7 6.7zM.3 262.9v7.1c.9-.9 1.5-2.2 1.5-3.5-.1-1.4-.6-2.7-1.5-3.6zM7.6 248.6c3.4 0 6.2-2.7 6.2-6.1 0-3.4-2.7-6.2-6.1-6.2-3.4 0-6.2 2.8-6.2 6.2 0 3.4 2.7 6.1 6.1 6.1zM3.3 12.1c-1.3 0-2.4.6-3.3 1.4v5.9c.8.9 1.9 1.4 3.2 1.4 2.4 0 4.4-2 4.4-4.4.1-2.4-1.9-4.3-4.3-4.3zM128.5 49.3zM13 29.7c-3 0-5.5 2.5-5.5 5.5s2.4 5.5 5.5 5.5c3 0 5.5-2.4 5.5-5.5S16 29.7 13 29.7zM108.3 33.9c0 3.3 2.7 6.1 6.1 6.1 3.4 0 6.1-2.7 6.1-6.1 0-3.4-2.7-6.1-6.1-6.1-3.4 0-6.1 2.7-6.1 6.1zM102.7 47.8c-3.9 0-7 3.1-7.1 7 0 3.9 3.1 7 7 7s7-3.1 7.1-7c.1-3.8-3.1-7-7-7zM102.7 47.8zM124.9 9.6c-2.9 0-5.3 2.4-5.3 5.3s2.4 5.3 5.3 5.3 5.3-2.4 5.3-5.3-2.4-5.2-5.3-5.3zM100.7 8.1c-3 0-5.4 2.4-5.4 5.4 0 3 2.4 5.4 5.4 5.4 3 0 5.4-2.4 5.4-5.4 0-3-2.4-5.4-5.4-5.4zM89 26.7c-3.4 0-6.2 2.8-6.2 6.2 0 3.4 2.8 6.2 6.2 6.2 3.4 0 6.2-2.8 6.2-6.2 0-3.4-2.8-6.2-6.2-6.2zM62.6 85.3c4.1 0 7.5-3.3 7.5-7.5 0-4.1-3.3-7.5-7.5-7.5s-7.5 3.4-7.5 7.5 3.4 7.5 7.5 7.5zM63.3 26.6c-3.4 0-6.1 2.7-6.1 6.1 0 3.4 2.7 6.1 6.1 6.1 3.4 0 6.1-2.7 6.1-6.1 0-3.3-2.7-6-6.1-6.1zM90.1 70.4c-4.2 0-7.5 3.4-7.5 7.5s3.4 7.5 7.5 7.5 7.5-3.4 7.5-7.5c0-4.2-3.3-7.5-7.5-7.5z"/><path id="Фигура_521-4" class="st1" d="M0 87.2s93.5 31.1 140.4 42.7c20.9 45.6 56 88 56 88l148 33 24 112 75 19 105 73H.4L0 87.2z"/><g><path class="st2" d="M360.3 379.9C224.5 505.5 183.6 283 129.2 282.4s-36.3 101.2-90 77c-17.7-8-29.8-23-38.9-38.2v29.7c9.1 15.9 21.3 31.5 39 39.8 53.5 24.9 37.3-84.7 94.6-80.9 57.4 3.8 107.3 224.3 239.5 103.6 16.7-15.2 34.3-26.9 52.4-35.8l-48.2-12.2c-5.8 4.4-11.6 9.2-17.3 14.5zM386.7 446.9c-3.2 2.9-6.4 5.6-9.5 8h58.3c24.6-14 50.4-22 75.8-25.8l-41.7-29c-28.7 8.7-57 23.4-82.9 46.8z"/><path class="st2" d="M143.5 364.7c28.4 4.5 57.8 50.7 92.8 90.2h18.2c-47.1-40.2-81.2-113.7-115.8-117.7-60.3-6.9-46 110.5-99.3 84.8-17.7-8.5-30-24.7-39.1-41.3v29.8c9.1 17.4 21.5 34.1 39.2 42.9 1.2.6 2.3 1.1 3.4 1.5H62c28.6-14.6 29.3-98.5 81.5-90.2zM0 134.5c11.9-2.3 25.8-4.8 41.9-7.6 14.2-2.5 26.7-7.9 39.4-13.8-13.2-4-26.3-8.1-38-11.9-.5.1-1.1.3-1.6.4-15.7 4.1-29.6 8.1-41.6 12L0 134.5z"/><path class="st2" d="M148.3 392.2c-37.5-7.5-50.4 32-64.2 62.7h14.4c11.7-22.9 26.9-41.6 54.6-35 15.5 3.7 31.9 17.3 49.3 35h18.3c-26.3-30.5-50-58.2-72.4-62.7zM342 277.6c-136.9 93.4-164.8-83.9-218.2-77.2-46.4 5.8-34.1 76.5-84 61.3C22.6 256.5 10 246.5.1 236.6v12.7c9.5 11.9 21.8 23.8 39.2 30.1 52.1 18.9 34.8-59.6 82.4-65.3 51-6.3 75.9 195.7 216.2 81.2 4.5-3.7 9.1-7.1 13.7-10.4l-2.6-12.1c-2.3 1.6-4.7 3.2-7 4.8zM.1 154.7v19.1c11.5.9 25.4 1.7 42.1 1.4 38.1-.7 51.6-35.6 92.4-41.5 2.4-.3 4.8-.6 7.2-.7-.5-1-1-2-1.4-3-8.8-2.2-19.2-5-30.3-8.3-23.9 10.6-41.1 27.3-68 29.8-16.4 1.6-30.3 2.5-42 3.2z"/><path class="st2" d="M333.9 313.2c-142.8 135.4-165.6-91-214.3-85.3S93 319.9 39 297.2C21.3 289.8 9.3 275.8.2 261.9v29.6c9.1 14.6 21.2 29 38.9 36.7 53.9 23.5 33.8-70.6 85.3-73.1 51.6-2.6 83.4 221.9 222.7 91.4 4.9-4.6 9.9-8.9 15-12.9l-8-37.6c-6.9 5.3-13.6 11-20.2 17.2zM8.7 454.9c-3-4.7-5.8-9.6-8.3-14.6v14.6h8.3z"/><path class="st2" d="M336.3 249.1c-60.2 19.8-99-3.4-130.4-29.1l-9.6-2.1s-5.5-6.6-13.4-17.4c-18.6-15.9-35.6-28.2-54.7-25.7-44.2 5.9-41.9 61.7-87.4 53.4-17-3.1-30.1-9.2-40.7-15.4v10.8c10.2 8 23.1 16 40.1 20.1 47.7 11.7 40.4-51.5 85.7-57.4 55.8-7.2 87.8 145.8 220.1 73.1.1 0 .1-.1.2-.1l-1.8-8.5-8.1-1.7z"/><path class="st2" d="M132.6 149.8c-41.9 5.9-50.2 47.6-90.7 45.5-16.9-.9-30.6-3.4-41.8-6.1v12.3c11 4.4 24.4 8.8 41.3 10.8 43 5.1 46-43.5 89-49.5 10.4-1.4 20.3.6 30.2 4.6-3.5-5.7-7-11.6-10.4-17.8-5.7-.7-11.6-.7-17.6.2z"/></g></g></switch></svg>