<svg id="Слой_1" xmlns="http://www.w3.org/2000/svg" viewBox="0 0 316.8 229.1"><style>.st1{fill:#75ba97}</style><switch><g><path id="Фигура_521-4" d="M0 0l112.8 25.2 24 112 75 19 105 73H0V0z" fill="#91c4a8"/><path class="st1" d="M102.4 87.4c6.6-6.2 13.3-11.9 20.1-17.2l-2.4-11c-4.6 3.3-9.2 6.8-13.7 10.4C60 107.5 26.3 110.7 0 98.4v28.4c25.5 9.8 58.2 2.5 102.4-39.4z"/><path class="st1" d="M130.5 107.8c-5.1 4-10.1 8.3-15 12.9-50.7 47.5-87.2 48-115.6 29.5v20.3c31.6 27.7 71.8 36.3 128.8-16.4 5.7-5.3 11.5-10.1 17.4-14.6l39.2 9.9-48.5-12.3-8.8-41.2 2.5 11.9zM114.5 33.7C64 61.4 28.2 56.3 0 39.8v29.6C27.1 84 61.9 84.9 110.5 51.8c2.3-1.6 4.7-3.2 7.1-4.7l-4.7-22 1.8 8.5c-.1.1-.2.1-.2.1z"/><path class="st1" d="M238.1 174.4l25 17.4-51.2-35.6-17.5-4.4c-18.1 8.9-35.8 20.6-52.4 35.8-62.6 57.1-106.8 37.8-142 1.2v17.4c7.3 8.3 15 16.1 23 22.9h122.7c3.1-2.5 6.3-5.2 9.5-8 25.9-23.4 54.2-38.1 82.9-46.7zM279.8 203.4c-25.4 3.8-51.2 11.8-75.8 25.8h112.8l-37-25.8zM0 229.1h4.8c-1.6-1.8-3.2-3.6-4.8-5.5v5.5zM104.8 23.4L0 0v12.7c26.9 16.2 59.9 25.4 104.8 10.7z"/></g></switch></svg>