<svg id="Слой_1" xmlns="http://www.w3.org/2000/svg" viewBox="0 0 587.5 276.3"><style>.st1{fill:#75ba97}</style><switch><g><g id="left-2"><path id="Фигура_521-3_1_" d="M587.5 276.3C573.6 244.4 562 187 562 187l-160-36-63-82-170-2L0 0h587.5v276.3z" fill="#91c4a8"/><path class="st1" d="M574.4 237.8c2.5 8.8 5.3 17.8 8.2 26 1.7 1.6 3.3 3.3 4.9 5v-16.3c-4.2-5.1-8.5-10.1-13.1-14.7zM568 213.6c6.8 7.2 13.3 15 19.5 23V220c-7.9-10.1-16.1-20.3-24.8-29.7.9 4.5 2.8 13 5.3 23.3z"/><path class="st1" d="M385.3 112.8c-2.5 2.2-5.1 4.3-7.7 6.4l20.9 27.2c83.1-73.6 141-2.9 189 55.9v-19c-53.1-60.9-116.6-145-202.2-70.5z"/><path class="st1" d="M439.5 159.4l119.4 26.9c-32.1-33.4-70.2-55.3-119.4-26.9z"/><path class="st1" d="M372.1 79.1c87.4-74.7 157.2 21.9 215.5 84.1V98.1C555 70.8 518.8 30.4 480.7 0h-181C234.5 31.7 162.1 15.8 118 0H0l169 67 170 2 17.2 22.4c5.4-3.8 10.7-7.8 15.9-12.3zM587.5 0h-84.7c30 26.9 58.7 55.8 84.7 76V0z"/></g></g></switch></svg>