<svg xmlns="http://www.w3.org/2000/svg" viewBox="0 0 134.7 24.8"><style>.st0{fill:#2c322f}.st2{fill:#fff}</style><switch><g><g><path d="M21.4 19V2.2S19.3 1 16.5 1c-1.4 0-2.9.3-4.5 1.2-1.7 1-3.4 1.3-4.9 1.3-2.3 0-4.3-.8-5.6-1.1.6 1.8.6 14.8 0 16.8 1.3.3 3.3 1 5.6 1 1.5 0 3.2-.3 4.8-1.3 1.6-.9 3.1-1.2 4.5-1.2 2.9.1 5 1.3 5 1.3z" fill="#75ba97"/><path class="st2" d="M21.9 1.3c-.1 0-2.4-1.3-5.4-1.3-1.8 0-3.5.4-5 1.3-1.4.8-2.8 1.2-4.4 1.2-1.6 0-2.7-.3-3.9-.7-.4-.1-1.7.3-1.7.3v1.7c.5 1.6.3 12.7-.2 14.7v1.8c.3.1.6.2.9.2 1.3.3 3 .8 4.9.8 1.9 0 3.7-.5 5.3-1.4 1.2-.7 2.6-1.1 4-1.1 2.5 0 4.4 1.1 4.4 1.1l1.5.9V1.6l-.4-.3zm-14.7 19c-2.3 0-4.4-.7-5.6-1 .6-2.1.6-15.1 0-16.8 1.3.3 3.2 1.1 5.6 1.1 1.5 0 3.2-.3 4.9-1.3 1.4-1 3-1.3 4.4-1.3 2.8 0 4.9 1.2 4.9 1.2V19s-2.1-1.2-4.9-1.2c-1.4 0-3 .3-4.5 1.2-1.6 1-3.3 1.3-4.8 1.3z"/><g><path class="st2" d="M13.2 15l-1.1-2c-.3-.6-.9-.9-1.6-.9h-.2V15H8.6V7.9c0-.6.5-1.1 1.1-1.1h2.8c1.7 0 2.8 1.1 2.8 2.7 0 1.5-.9 2.2-1.8 2.4l1.5 2.6c.2.3.3.6.3.6h-2.1zm.2-5.5c0-.7-.5-1.1-1.2-1.1h-1.6c-.1 0-.2.1-.2.2v2h1.8c.7 0 1.2-.4 1.2-1.1z"/></g></g><path class="st0" d="M1.1 1.9h2v22.9h-2z"/></g></switch></svg>