<svg xmlns="http://www.w3.org/2000/svg" style="display: none;"><symbol id="linkedin" viewBox="0 0 512 512"><title>linkedin</title><path d="m437 0h-362c-41.351562 0-75 33.648438-75 75v362c0 41.351562 33.648438 75 75 75h362c41.351562 0 75-33.648438 75-75v-362c0-41.351562-33.648438-75-75-75zm-256 406h-60v-210h60zm0-240h-60v-60h60zm210 240h-60v-120c0-16.539062-13.460938-30-30-30s-30 13.460938-30 30v120h-60v-210h60v11.308594c15.71875-4.886719 25.929688-11.308594 45-11.308594 40.691406.042969 75 36.546875 75 79.6875zm0 0"/></symbol><symbol id="telegram" viewBox="0 -31 512 512"><title>telegram</title><path d="m123.195312 260.738281 63.679688 159.1875 82.902344-82.902343 142.140625 112.976562 100.082031-450-512 213.265625zm242.5-131.628906-156.714843 142.941406-19.519531 73.566407-36.058594-90.164063zm0 0"/></symbol><symbol id="github" viewBox="0 0 512 512"><title>github</title><path d="m256 0c-140.609375 0-256 115.390625-256 256 0 119.988281 84.195312 228.984375 196 256v-84.695312c-11.078125 2.425781-21.273438 2.496093-32.550781-.828126-15.128907-4.464843-27.421875-14.542968-36.546875-29.910156-5.816406-9.8125-16.125-20.453125-26.878906-19.671875l-2.636719-29.882812c23.253906-1.992188 43.371093 14.167969 55.3125 34.230469 5.304687 8.921874 11.410156 14.152343 19.246093 16.464843 7.574219 2.230469 15.707032 1.160157 25.183594-2.1875 2.378906-18.972656 11.070313-26.074219 17.636719-36.074219v-.015624c-66.679687-9.945313-93.253906-45.320313-103.800781-73.242188-13.976563-37.074219-6.476563-83.390625 18.238281-112.660156.480469-.570313 1.347656-2.0625 1.011719-3.105469-11.332032-34.230469 2.476562-62.546875 2.984375-65.550781 13.078125 3.867187 15.203125-3.890625 56.808593 21.386718l7.191407 4.320313c3.007812 1.792969 2.0625.769531 5.070312.542969 17.371094-4.71875 35.683594-7.324219 53.726563-7.558594 18.179687.234375 36.375 2.839844 54.464844 7.75l2.328124.234375c-.203124-.03125.632813-.148437 2.035157-.984375 51.972656-31.480469 50.105469-21.191406 64.042969-25.722656.503906 3.007812 14.128906 31.785156 2.917968 65.582031-1.511718 4.65625 45.058594 47.300781 19.246094 115.753906-10.546875 27.933594-37.117188 63.308594-103.796875 73.253907v.015624c8.546875 13.027344 18.816406 19.957032 18.761719 46.832032v105.722656c111.808594-27.015625 196-136.011719 196-256 .003906-140.609375-115.386719-256-255.996094-256zm0 0"/></symbol><symbol id="skype" viewBox="0 0 512 512"><title>skype</title><path d="m482 256c0-124.070312-101.929688-226-226-226-4.835938 0-10.625.160156-15.386719.453125-25.96875-19.6875-57.917969-30.453125-90.613281-30.453125-82.703125 0-150 68.296875-150 151 0 32.695312 10.765625 64.644531 30.453125 90.613281-.292969 4.761719-.453125 9.550781-.453125 14.386719 0 124.070312 101.929688 226 226 226 4.835938 0 9.625-.160156 14.386719-.453125 25.96875 19.6875 57.917969 30.453125 90.613281 30.453125 82.703125 0 151-67.296875 151-150 0-32.695312-10.765625-65.644531-30.453125-91.613281.292969-4.761719.453125-9.550781.453125-14.386719zm-226 151c-29.925781 0-59.445312-8.042969-81.289062-22.617188-19.132813-12.765624-35.980469-30.214843-26.015626-50.945312 10.320313-21.140625 39.109376-20.300781 50.230469-6.609375 7.96875 9.800781 31.410157 19.734375 58.902344 19.734375 22.28125 0 58.171875-11.71875 58.171875-29.5625 0-18.007812-35.777344-31-60-31-74.214844 0-121-44.964844-121-90 0-43.734375 42.386719-88.207031 120.925781-88.234375 29.75-.011719 59.515625 6.933594 80.347657 20.851563 19.144531 12.75 35.996093 30.214843 26.03125 50.945312-9.683594 19.839844-37.722657 22.039062-50.246094 6.578125-7.953125-9.769531-30.394532-19.703125-57.890625-19.703125-22.277344 0-59.167969 11.71875-59.167969 29.5625 0 18.007812 36.777344 30 61 30 74.214844 0 120 45.964844 120 91 0 45.246094-45.992188 90-120 90zm0 0"/></symbol><symbol id="close-envelope" viewBox="0 0 14 14"><title>close-envelope</title><path style="fill:#24559e;" d="M7,9L5.268,7.484l-4.952,4.245C0.496,11.896,0.739,12,1.007,12h11.986 c0.267,0,0.509-0.104,0.688-0.271L8.732,7.484L7,9z"/><path style="fill:#24559e;" d="M13.684,2.271C13.504,2.103,13.262,2,12.993,2H1.007C0.74,2,0.498,2.104,0.318,2.273L7,8 L13.684,2.271z"/><polygon style="fill:#24559e;" points="0,2.878 0,11.186 4.833,7.079 "/><polygon style="fill:#24559e;" points="9.167,7.079 14,11.186 14,2.875 "/></symbol><symbol id="maps-and-flags" viewBox="0 0 512 512"><title>maps-and-flags</title><path d="M256,0C153.755,0,70.573,83.182,70.573,185.426c0,126.888,165.939,313.167,173.004,321.035 c6.636,7.391,18.222,7.378,24.846,0c7.065-7.868,173.004-194.147,173.004-321.035C441.425,83.182,358.244,0,256,0z M256,278.719 c-51.442,0-93.292-41.851-93.292-93.293S204.559,92.134,256,92.134s93.291,41.851,93.291,93.293S307.441,278.719,256,278.719z"/></symbol><symbol id="call-answer" viewBox="0 0 348.077 348.077"><title>call-answer</title><path d="M340.273,275.083l-53.755-53.761c-10.707-10.664-28.438-10.34-39.518,0.744l-27.082,27.076 c-1.711-0.943-3.482-1.928-5.344-2.973c-17.102-9.476-40.509-22.464-65.14-47.113c-24.704-24.701-37.704-48.144-47.209-65.257 c-1.003-1.813-1.964-3.561-2.913-5.221l18.176-18.149l8.936-8.947c11.097-11.1,11.403-28.826,0.721-39.521L73.39,8.194 C62.708-2.486,44.969-2.162,33.872,8.938l-15.15,15.237l0.414,0.411c-5.08,6.482-9.325,13.958-12.484,22.02 C3.74,54.28,1.927,61.603,1.098,68.941C-6,127.785,20.89,181.564,93.866,254.541c100.875,100.868,182.167,93.248,185.674,92.876 c7.638-0.913,14.958-2.738,22.397-5.627c7.992-3.122,15.463-7.361,21.941-12.43l0.331,0.294l15.348-15.029 C350.631,303.527,350.95,285.795,340.273,275.083z"/></symbol><symbol id="instagram" viewBox="0 0 512 512"><title>instagram</title><path d="m437 0h-362c-41.351562 0-75 33.648438-75 75v362c0 41.351562 33.648438 75 75 75h362c41.351562 0 75-33.648438 75-75v-362c0-41.351562-33.648438-75-75-75zm-180 390c-74.441406 0-135-60.558594-135-135s60.558594-135 135-135 135 60.558594 135 135-60.558594 135-135 135zm150-240c-24.8125 0-45-20.1875-45-45s20.1875-45 45-45 45 20.1875 45 45-20.1875 45-45 45zm0 0"/><path d="m407 90c-8.277344 0-15 6.722656-15 15s6.722656 15 15 15 15-6.722656 15-15-6.722656-15-15-15zm0 0"/><path d="m257 150c-57.890625 0-105 47.109375-105 105s47.109375 105 105 105 105-47.109375 105-105-47.109375-105-105-105zm0 0"/></symbol></svg>