<svg xmlns="http://www.w3.org/2000/svg" style="display: none;">
    <symbol id="html" viewBox="0 0 128 128">
        <title>html</title>
        <path fill="#E44D26" d="M9.032 2l10.005 112.093 44.896 12.401 45.02-12.387 10.015-112.107h-109.936zm89.126 26.539l-.627 7.172-.276 3.289h-52.665000000000006l1.257 14h50.156000000000006l-.336 3.471-3.233 36.119-.238 2.27-28.196 7.749v.002l-.034.018-28.177-7.423-1.913-21.206h13.815000000000001l.979 10.919 15.287 4.081h.043v-.546l15.355-3.875 1.604-17.579h-47.698l-3.383-38.117-.329-3.883h68.939l-.33 3.539z"></path>
    </symbol>
    <symbol id="css" viewBox="0 0 128 128">
        <title>css</title>
        <path fill="#1572B6" d="M8.76 1l10.055 112.883 45.118 12.58 45.244-12.626 10.063-112.837h-110.48zm89.591 25.862l-3.347 37.605.01.203-.014.467v-.004l-2.378 26.294-.262 2.336-28.36 7.844v.001l-.022.019-28.311-7.888-1.917-21.739h13.883l.985 11.054 15.386 4.17-.004.008v-.002l15.443-4.229 1.632-18.001h-32.282999999999994l-.277-3.043-.631-7.129-.331-3.828h34.748999999999995l1.264-14h-52.926l-.277-3.041-.63-7.131-.332-3.828h69.281l-.331 3.862z"></path>
    </symbol>
    <symbol id="js" viewBox="0 0 128 128">
        <title>js</title>
        <path fill="#F0DB4F" d="M2 1v125h125v-125h-125zm66.119 106.513c-1.845 3.749-5.367 6.212-9.448 7.401-6.271 1.44-12.269.619-16.731-2.059-2.986-1.832-5.318-4.652-6.901-7.901l9.52-5.83c.083.035.333.487.667 1.071 1.214 2.034 2.261 3.474 4.319 4.485 2.022.69 6.461 1.131 8.175-2.427 1.047-1.81.714-7.628.714-14.065-.001-10.115.046-20.188.046-30.188h11.709c0 11 .06 21.418 0 32.152.025 6.58.596 12.446-2.07 17.361zm48.574-3.308c-4.07 13.922-26.762 14.374-35.83 5.176-1.916-2.165-3.117-3.296-4.26-5.795 4.819-2.772 4.819-2.772 9.508-5.485 2.547 3.915 4.902 6.068 9.139 6.949 5.748.702 11.531-1.273 10.234-7.378-1.333-4.986-11.77-6.199-18.873-11.531-7.211-4.843-8.901-16.611-2.975-23.335 1.975-2.487 5.343-4.343 8.877-5.235l3.688-.477c7.081-.143 11.507 1.727 14.756 5.355.904.916 1.642 1.904 3.022 4.045-3.772 2.404-3.76 2.381-9.163 5.879-1.154-2.486-3.069-4.046-5.093-4.724-3.142-.952-7.104.083-7.926 3.403-.285 1.023-.226 1.975.227 3.665 1.273 2.903 5.545 4.165 9.377 5.926 11.031 4.474 14.756 9.271 15.672 14.981.882 4.916-.213 8.105-.38 8.581z"></path>
    </symbol>
    <symbol id="php" viewBox="0 0 128 128">
        <title>php</title>
        <path fill="#6181B6" d="M64 33.039c-33.74 0-61.094 13.862-61.094 30.961s27.354 30.961 61.094 30.961 61.094-13.862 61.094-30.961-27.354-30.961-61.094-30.961zm-15.897 36.993c-1.458 1.364-3.077 1.927-4.86 2.507-1.783.581-4.052.461-6.811.461h-6.253l-1.733 10h-7.301l6.515-34h14.04c4.224 0 7.305 1.215 9.242 3.432 1.937 2.217 2.519 5.364 1.747 9.337-.319 1.637-.856 3.159-1.614 4.515-.759 1.357-1.75 2.624-2.972 3.748zm21.311 2.968l2.881-14.42c.328-1.688.208-2.942-.361-3.555-.57-.614-1.782-1.025-3.635-1.025h-5.79l-3.731 19h-7.244l6.515-33h7.244l-1.732 9h6.453c4.061 0 6.861.815 8.402 2.231s2.003 3.356 1.387 6.528l-3.031 15.241h-7.358zm40.259-11.178c-.318 1.637-.856 3.133-1.613 4.488-.758 1.357-1.748 2.598-2.971 3.722-1.458 1.364-3.078 1.927-4.86 2.507-1.782.581-4.053.461-6.812.461h-6.253l-1.732 10h-7.301l6.514-34h14.041c4.224 0 7.305 1.215 9.241 3.432 1.935 2.217 2.518 5.418 1.746 9.39zM95.919 54h-5.001l-2.727 14h4.442c2.942 0 5.136-.29 6.576-1.4 1.442-1.108 2.413-2.828 2.918-5.421.484-2.491.264-4.434-.66-5.458-.925-1.024-2.774-1.721-5.548-1.721zM38.934 54h-5.002l-2.727 14h4.441c2.943 0 5.136-.29 6.577-1.4 1.441-1.108 2.413-2.828 2.917-5.421.484-2.491.264-4.434-.66-5.458s-2.772-1.721-5.546-1.721z"></path>
    </symbol>
    <symbol id="jq" viewBox="0 0 32 32" fill="#0868ac">
        <title>jq</title>
        <path d="M2.144 7.705c-2.83 4.07-2.48 9.364-.316 13.7.05.104.105.206.158.308l.1.195c.02.038.042.075.063.112.037.07.075.134.113.202l.207.354.118.194.24.375.102.158c.113.168.228.336.347.5l.068.092a16.39 16.39 0 0 0 .316.42l.12.152.292.36.112.134c.133.157.27.313.407.465.014.015.02.02.024.026a20.44 20.44 0 0 0 .414.436l.133.134.33.324.135.13a16.98 16.98 0 0 0 .453.412l.496.42.17.136.343.268.183.14.385.276.18.127c.123.085.248.166.374.247l.162.108a20.81 20.81 0 0 0 .585.358l.162.1.44.246c.08.043.162.084.243.125l.314.163.073.035.13.062.498.23.105.047a17.83 17.83 0 0 0 .581.241l.14.056.548.203.07.024a21.72 21.72 0 0 0 .61.2l.148.044c.2.063.416.14.63.178 13.694 2.497 17.67-8.23 17.67-8.23-3.34 4.352-9.27 5.5-14.9 4.222-.213-.048-.42-.114-.627-.176l-.156-.047a18.62 18.62 0 0 1-.604-.197l-.083-.03a20.87 20.87 0 0 1-.532-.197l-.15-.06a15.16 15.16 0 0 1-.575-.24l-.115-.05-.485-.226-.14-.067a5.044 5.044 0 0 1-.375-.2l-.25-.13c-.152-.08-.3-.166-.45-.252l-.152-.085a21.76 21.76 0 0 1-.585-.358c-.053-.034-.105-.07-.158-.105l-.416-.277c-.046-.03-.1-.064-.134-.094l-.394-.285-.175-.132-.355-.278-.158-.127-.442-.373a.73.73 0 0 0-.05-.04l-.465-.423-.13-.126-.332-.33-.13-.13a8.023 8.023 0 0 1-.4-.434l-.02-.022a16.98 16.98 0 0 1-.416-.474l-.1-.13-.3-.37-.1-.137-.346-.46C2.982 15.6 1.86 9.722 4.354 4.902m6.58-.625c-2.048 2.947-1.937 6.9-.34 10.008a13.06 13.06 0 0 0 .906 1.512c.307.44.647.963 1.054 1.316.148.163.302.32.46.477l.12.12a13.41 13.41 0 0 0 .469.436c.007.005.012.012.02.017.182.16.366.3.553.458l.124.097a13.46 13.46 0 0 0 .574.419l.017.012c.086.06.174.115.262.173.042.027.082.056.124.082a11.64 11.64 0 0 0 .425.26l.06.035.376.2c.044.025.1.046.134.07l.263.136c.013.007.027.012.04.018a11.39 11.39 0 0 0 .548.255l.12.05a14.16 14.16 0 0 0 .45.182l.192.07a14.26 14.26 0 0 0 .413.143l.187.06c.197.06.4.14.597.173 10.573 1.752 13.014-6.4 13.014-6.4-2.2 3.17-6.46 4.68-11.008 3.5a13.06 13.06 0 0 1-.599-.173 6.263 6.263 0 0 1-.18-.058l-.42-.144-.2-.07a15.08 15.08 0 0 1-.45-.182l-.122-.05a12.58 12.58 0 0 1-.552-.256l-.277-.14-.16-.082a13.16 13.16 0 0 1-.35-.197l-.084-.047a12.34 12.34 0 0 1-.424-.26c-.043-.027-.085-.057-.128-.085l-.275-.182a13.24 13.24 0 0 1-.57-.418l-.13-.1c-2-1.572-3.568-3.72-4.318-6.154-.786-2.525-.617-5.36.745-7.66m5.732-.183C17.12 3.5 17 5.698 17.838 7.66c.883 2.083 2.693 3.716 4.806 4.5l.262.1.116.036.377.1c5.838 1.128 7.42-2.996 7.843-3.603-1.387 1.997-3.718 2.476-6.578 1.782a7.484 7.484 0 0 1-.692-.214 8.46 8.46 0 0 1-.822-.341 8.5 8.5 0 0 1-1.441-.879C19.15 7.2 17.56 3.486 19.23.47"/>
    </symbol>
    <symbol id="sass" viewBox="0 0 64 64">
        <title>sass</title>
        <path d="M55.094 35.56a13.19 13.19 0 0 0-5.8 1.35c-.6-1.188-1.2-2.225-1.3-3-.113-.9-.25-1.45-.113-2.525s.763-2.6.763-2.725c-.012-.113-.138-.663-1.425-.675s-2.4.25-2.525.588a14.36 14.36 0 0 0-.538 1.913c-.225 1.175-2.575 5.338-3.913 7.526-.438-.85-.813-1.6-.888-2.2-.113-.9-.25-1.45-.113-2.525s.763-2.6.763-2.725c-.012-.113-.138-.663-1.425-.675s-2.4.25-2.525.588-.263 1.138-.538 1.913c-.263.775-3.388 7.726-4.2 9.538-.413.925-.775 1.663-1.038 2.163s-.012.038-.037.088l-.35.663v.012c-.175.313-.363.613-.45.613-.062 0-.188-.838.025-1.988.463-2.413 1.588-6.176 1.575-6.313 0-.062.213-.725-.725-1.063-.913-.338-1.238.225-1.313.225s-.138.2-.138.2 1.013-4.238-1.938-4.238c-1.85 0-4.4 2.013-5.663 3.85l-6.376 3.488-.138-.15C11.178 35.66 4.565 32.96 4.84 27.835c.1-1.863.75-6.776 12.7-12.726 9.788-4.875 17.627-3.538 18.99-.563 1.938 4.25-4.188 12.15-14.364 13.29-3.875.438-5.913-1.063-6.426-1.625-.538-.588-.613-.613-.813-.5-.325.175-.125.7 0 1.013.3.788 1.55 2.188 3.675 2.888 1.863.613 6.413.95 11.914-1.175 6.163-2.388 10.976-9.013 9.563-14.55-1.438-5.638-10.788-7.488-19.627-4.35C15.19 11.41 9.5 14.334 5.4 18.172.515 22.722-.26 26.698.064 28.348c1.138 5.888 9.25 9.726 12.5 12.564l-.45.25c-1.625.8-7.813 4.038-9.363 7.463-1.75 3.875.275 6.663 1.625 7.038 4.175 1.163 8.45-.925 10.763-4.363 2.3-3.438 2.025-7.9.963-9.938l-.038-.075 1.275-.75a74.573 74.573 0 0 1 2.35-1.325c-.4 1.088-.688 2.375-.838 4.25-.175 2.2.725 5.05 1.913 6.176.525.488 1.15.5 1.538.5 1.375 0 2-1.138 2.688-2.5.85-1.663 1.6-3.588 1.6-3.588s-.938 5.213 1.625 5.213c.938 0 1.875-1.213 2.3-1.838v.012s.025-.038.075-.125c.1-.15.15-.238.15-.238v-.025c.375-.65 1.213-2.138 2.463-4.6 1.613-3.175 3.163-7.15 3.163-7.15s.15.975.613 2.575c.275.95.875 1.988 1.338 3l-.6.825.012.013a35.62 35.62 0 0 1-.988 1.25c-1.275 1.525-2.8 3.263-3 3.763-.238.588-.188 1.025.275 1.375.338.25.938.3 1.575.25 1.15-.075 1.95-.363 2.35-.538a8.14 8.14 0 0 0 2.025-1.063c1.25-.925 2.013-2.238 1.938-3.988-.038-.963-.35-1.913-.738-2.813l.338-.5c1.975-2.888 3.5-6.063 3.5-6.063s.15.975.613 2.575c.238.813.713 1.7 1.138 2.575-1.85 1.513-3.013 3.263-3.413 4.413-.738 2.125-.163 3.088.925 3.313.488.1 1.188-.125 1.713-.35a7.76 7.76 0 0 0 2.163-1.113c1.25-.925 2.45-2.213 2.388-3.95-.038-.8-.25-1.588-.538-2.338 1.575-.65 3.613-1.025 6.2-.713 5.563.65 6.663 4.125 6.45 5.575s-1.375 2.25-1.763 2.5c-.388.238-.513.325-.475.5.05.263.225.25.563.2.463-.075 2.925-1.188 3.025-3.863.15-3.438-3.113-7.188-8.9-7.15zM12.19 50.025c-1.838 2.013-4.425 2.775-5.525 2.125-1.188-.688-.725-3.65 1.538-5.788 1.375-1.3 3.163-2.5 4.338-3.238l1.138-.688c.075-.05.125-.075.125-.075.088-.05.188-.113.288-.175.838 3.05.038 5.725-1.9 7.838zm13.44-9.138c-.638 1.563-1.988 5.575-2.8 5.35-.7-.188-1.125-3.225-.138-6.226.5-1.513 1.563-3.313 2.188-4.013 1.013-1.125 2.113-1.5 2.388-1.038.325.6-1.238 4.95-1.638 5.926zm11.088 5.3c-.275.138-.525.238-.638.163-.088-.05.113-.238.113-.238s1.388-1.488 1.938-2.175l1.088-1.388v.15c0 1.8-1.725 3-2.5 3.488zm8.55-1.95c-.2-.15-.175-.613.5-2.063.263-.575.863-1.538 1.9-2.45.125.375.2.738.188 1.075-.013 2.25-1.613 3.088-2.588 3.438z" fill="#cf649a"/>
    </symbol>
    <symbol id="bs" viewBox="0 0 128 128">
        <title>bs</title>
        <path fill="#5B4282" d="M75.701 65.603c-2.334-.768-5.694-.603-10.08-.603h-17.621v23h18.844c2.944 0 5.012-.315 6.203-.535 2.099-.376 3.854-1.104 5.264-1.982 1.409-.876 2.568-2.205 3.478-3.881.908-1.676 1.363-3.637 1.363-5.83 0-2.568-.658-4.54-1.975-6.436-1.316-1.896-3.141-2.965-5.476-3.733zM73.282 55.087c2.317-.688 4.064-1.89 5.239-3.487 1.176-1.598 1.763-3.631 1.763-6.044 0-2.286-.549-4.314-1.646-6.054s-2.662-2.413-4.699-3.056c-2.037-.641-5.53-.446-10.48-.446h-15.459v20h16.587c4.042 0 6.939-.38 8.695-.913zM126 18.625c0-9.182-7.443-16.625-16.625-16.625h-91.75c-9.182 0-16.625 7.443-16.625 16.625v91.75c0 9.182 7.443 16.625 16.625 16.625h91.75c9.182 0 16.625-7.443 16.625-16.625v-91.75zm-35.447 66.12c-1.362 2.773-3.047 4.911-5.052 6.415-2.006 1.504-4.521 2.78-7.544 3.548-3.022.769-6.728 1.292-11.113 1.292h-27.844v-69h27.42c5.264 0 9.485.609 12.665 2.002 3.181 1.395 5.671 3.497 7.474 6.395 1.801 2.898 2.702 5.907 2.702 9.071 0 2.945-.8 5.708-2.397 8.308-1.598 2.602-4.011 4.694-7.237 6.292 4.166 1.222 7.37 3.304 9.61 6.248 2.24 2.945 3.36 6.422 3.36 10.432 0 3.227-.681 6.225-2.044 8.997z"></path>
    </symbol>
    <symbol id="git" viewBox="0 0 128 128">
        <title>git</title>
        <path fill="#F34F29" d="M124.737 58.378l-55.116-55.114c-3.172-3.174-8.32-3.174-11.497 0l-11.444 11.446 14.518 14.518c3.375-1.139 7.243-.375 9.932 2.314 2.703 2.706 3.461 6.607 2.294 9.993l13.992 13.993c3.385-1.167 7.292-.413 9.994 2.295 3.78 3.777 3.78 9.9 0 13.679-3.78 3.78-9.901 3.78-13.683 0-2.842-2.844-3.545-7.019-2.105-10.521l-13.048-13.048-.002 34.341c.922.455 1.791 1.063 2.559 1.828 3.778 3.777 3.778 9.898 0 13.683-3.779 3.777-9.904 3.777-13.679 0-3.778-3.784-3.778-9.905 0-13.683.934-.933 2.014-1.638 3.167-2.11v-34.659c-1.153-.472-2.231-1.172-3.167-2.111-2.862-2.86-3.551-7.06-2.083-10.576l-14.313-14.313-37.792 37.79c-3.175 3.177-3.175 8.325 0 11.5l55.117 55.114c3.174 3.174 8.32 3.174 11.499 0l54.858-54.858c3.174-3.176 3.174-8.327-.001-11.501z"></path>
    </symbol>
    <symbol id="gh" viewBox="0 0 128 128">
        <title>gh</title>
        <path fill-rule="evenodd" clip-rule="evenodd" d="M64 5.103c-33.347 0-60.388 27.035-60.388 60.388 0 26.682 17.303 49.317 41.297 57.303 3.017.56 4.125-1.31 4.125-2.905 0-1.44-.056-6.197-.082-11.243-16.8 3.653-20.345-7.125-20.345-7.125-2.747-6.98-6.705-8.836-6.705-8.836-5.48-3.748.413-3.67.413-3.67 6.063.425 9.257 6.223 9.257 6.223 5.386 9.23 14.127 6.562 17.573 5.02.542-3.903 2.107-6.568 3.834-8.076-13.413-1.525-27.514-6.704-27.514-29.843 0-6.593 2.36-11.98 6.223-16.21-.628-1.52-2.695-7.662.584-15.98 0 0 5.07-1.623 16.61 6.19C53.7 35 58.867 34.327 64 34.304c5.13.023 10.3.694 15.127 2.033 11.526-7.813 16.59-6.19 16.59-6.19 3.287 8.317 1.22 14.46.593 15.98 3.872 4.23 6.215 9.617 6.215 16.21 0 23.194-14.127 28.3-27.574 29.796 2.167 1.874 4.097 5.55 4.097 11.183 0 8.08-.07 14.583-.07 16.572 0 1.607 1.088 3.49 4.148 2.897 23.98-7.994 41.263-30.622 41.263-57.294C124.388 32.14 97.35 5.104 64 5.104z"></path>
    </symbol>
    <symbol id="gl" viewBox="0 0 128 128">
        <title>gl</title>
        <path fill="#FC6D26" d="M126.615 72.31l-7.034-21.647L105.64 7.76c-.716-2.206-3.84-2.206-4.556 0l-13.94 42.903H40.856L26.916 7.76c-.717-2.206-3.84-2.206-4.557 0L8.42 50.664 1.385 72.31a4.792 4.792 0 0 0 1.74 5.358L64 121.894l60.874-44.227a4.793 4.793 0 0 0 1.74-5.357"></path>
        <path fill="#E24329" d="M64 121.894l23.144-71.23H40.856L64 121.893z"></path>
        <path fill="#FC6D26" d="M64 121.894l-23.144-71.23H8.42L64 121.893z"></path>
        <path fill="#FCA326" d="M8.42 50.663L1.384 72.31a4.79 4.79 0 0 0 1.74 5.357L64 121.894 8.42 50.664z"></path>
        <path fill="#E24329" d="M8.42 50.663h32.436L26.916 7.76c-.717-2.206-3.84-2.206-4.557 0L8.42 50.664z"></path>
        <path fill="#FC6D26" d="M64 121.894l23.144-71.23h32.437L64 121.893z"></path>
        <path fill="#FCA326" d="M119.58 50.663l7.035 21.647a4.79 4.79 0 0 1-1.74 5.357L64 121.894l55.58-71.23z"></path>
        <path fill="#E24329" d="M119.58 50.663H87.145l13.94-42.902c.717-2.206 3.84-2.206 4.557 0l13.94 42.903z"></path>
    </symbol>
    <symbol id="react" viewBox="0 0 32 32">
        <title>react</title>
        <g transform="matrix(.05696 0 0 .05696 .647744 2.43826)" fill="none" fill-rule="evenodd">
            <circle r="50.167" cy="237.628" cx="269.529" fill="#00d8ff"/>
            <g stroke="#00d8ff" stroke-width="24">
                <path d="M269.53 135.628c67.356 0 129.928 9.665 177.107 25.907 56.844 19.57 91.794 49.233 91.794 76.093 0 27.99-37.04 59.503-98.083 79.728-46.15 15.29-106.88 23.272-170.818 23.272-65.554 0-127.63-7.492-174.3-23.44-59.046-20.182-94.61-52.103-94.61-79.56 0-26.642 33.37-56.076 89.415-75.616 47.355-16.51 111.472-26.384 179.486-26.384z"/>
                <path d="M180.736 186.922c33.65-58.348 73.28-107.724 110.92-140.48C337.006 6.976 380.163-8.48 403.43 4.937c24.248 13.983 33.042 61.814 20.067 124.796-9.8 47.618-33.234 104.212-65.176 159.6-32.75 56.788-70.25 106.82-107.377 139.272-46.98 41.068-92.4 55.93-116.185 42.213-23.08-13.3-31.906-56.92-20.834-115.233 9.355-49.27 32.832-109.745 66.8-168.664z"/>
                <path d="M180.82 289.482C147.075 231.2 124.1 172.195 114.51 123.227c-11.544-59-3.382-104.11 19.864-117.566 24.224-14.024 70.055 2.244 118.14 44.94 36.356 32.28 73.688 80.837 105.723 136.173 32.844 56.733 57.46 114.21 67.036 162.582 12.117 61.213 2.31 107.984-21.453 121.74-23.057 13.348-65.25-.784-110.24-39.5-38.013-32.71-78.682-83.253-112.76-142.115z"/>
            </g>
        </g>
    </symbol>
    <symbol id="gulp" viewBox="0 0 128 128">
        <title>gulp</title>
        <path fill-rule="evenodd" clip-rule="evenodd" fill="#EB4A4B" d="M36.965 35.459c.877 9.232 1.747 18.412 2.637 27.798 1.451-2.495 2.501-4.888 4.085-6.848 1.475-1.826 3.334-3.511 5.357-4.678 2.641-1.524 6.104-.089 6.96 2.614.23.725-.319 1.697-.511 2.556-.646-.341-1.479-.529-1.901-1.051-1.793-2.217-2.873-2.479-4.856-.563-3.699 3.576-5.779 8.056-6.573 13.091-.153.974.456 2.067.713 3.105 1.011-.348 2.185-.476 3.002-1.084 2.656-1.977 4.302-4.666 5.21-7.88.197-.696 1.265-1.145 1.933-1.708.32.658 1.05 1.433.897 1.954-1.407 4.84-2.934 9.649-4.536 14.429-.162.484-1.051.725-1.604 1.079-.223-.636-.692-1.302-.617-1.901.168-1.358.605-2.683.91-3.927l-7.24 3.333c.405 4.622.825 9.807 1.323 14.985.382 3.954 1.029 4.978 4.923 5.728 4.544.875 9.173 1.434 13.792 1.774 6.825.503 13.59-.119 20.23-1.904 2.472-.664 3.458-2.29 3.635-4.717.162-2.235.524-4.456.775-6.685.493-4.391.972-8.783 1.476-13.358-1.667 1.056-2.978 2.238-4.511 2.739-1.116.365-2.524-.169-3.803-.303.245-1.174.23-2.497.796-3.487.922-1.618 2.224-3.021 3.364-4.515l-.491-.591c-.817.483-1.832.8-2.413 1.485-1.182 1.394-2.339 2.886-3.13 4.52-1.324 2.735-2.333 5.622-3.518 8.426-.515 1.216-.959 3.076-2.684 2.366-1.845-.761-.547-2.386-.114-3.542.689-1.844 1.599-3.606 2.215-4.962-1.746.208-3.516.459-5.294.614-.752.064-1.646-.348-2.261-.07-2.045.924-3.341.553-3.766-1.711-.947.615-1.749 1.448-2.694 1.672-1.147.273-2.703.452-3.543-.121-.673-.459-.918-2.184-.688-3.196.457-2.012 1.311-3.946 2.122-5.859.502-1.185 1.007-3.077 2.701-2.253 1.674.813.154 2.185-.232 3.286-.599 1.702-1.209 3.401-1.813 5.101l.96.58c.914-.794 2.053-1.441 2.693-2.415 1.048-1.592 1.681-3.452 2.673-5.086.411-.677 1.296-1.065 1.967-1.584.136.862.462 1.748.354 2.58-.107.841-.698 1.61-.981 2.442-.425 1.246-.768 2.52-1.2 3.969 2.043.078 2.918-.782 3.495-2.299 1.826-4.793 3.672-9.581 5.679-14.3.343-.808 1.509-1.264 2.296-1.884.091.974.525 2.078.216 2.899-1.645 4.349-3.492 8.62-5.228 12.935-.293.727-.387 1.534-.572 2.304 3.059-1.375 5.612-2.895 6.544-6.146.228-.79 1.162-1.377 1.771-2.058l1.416 1.5c.43-.362.824-.774 1.291-1.075 1.47-.947 3.053-1.782 4.603-.315 1.604 1.517.39 2.995-.448 4.307-.912 1.431-2.029 2.73-3.057 4.086 2.312-1.49 5.469-2.158 5.889-5.378 1.024-7.865 1.924-15.746 2.837-23.625.271-2.332.416-4.679.627-7.109-18.21 4.409-36.029 4.436-54.088-.069zM44.781 96.828c.877 2.317 2.209 4.593 2.558 7.011.737 5.147.924 10.372 1.446 15.554.076.755.565 1.792 1.175 2.124 8.98 4.88 18.047 5.726 27.209.389 1.367-.796 1.62-1.847 1.797-3.325.857-7.181-1.051-14.798 3.54-21.56-12.856 3.189-25.403 3.288-37.725-.193zM75.772 36.748c4.362-.421 8.671-1.445 12.985-2.291.813-.159 1.535-.778 2.299-1.185-1.007-.885-1.878-1.311-2.788-1.418-4.53-.535-9.076-.947-13.603-1.508-.684-.085-1.905-.929-1.854-1.083 1.321-3.98 1.256-8.485 4.254-11.839 3.789-4.24 7.617-8.443 11.416-12.648-2.826-3.04-2.864-3.044-5.425-.383-1.448 1.504-2.771 3.15-4.342 4.512-5.813 5.038-9.896 11.005-10.692 18.872-.183 1.805-1.174 2.457-3.069 2.485-6.256.091-12.519.263-18.761.674-3.093.203-6.148.997-9.221 1.523l-.028 1.149c1.923.593 3.809 1.372 5.773 1.749 10.944 2.098 21.991 2.458 33.056 1.391zm-3.496-2.748c-2.477 2-4.524 2-6.501 0h6.501z"></path>
    </symbol>
    <symbol id="npm" viewBox="0 0 32 32">
        <title>npm</title>
        <path d="M0 0h32v32H0z" fill="#cb3837"/>
        <path d="M5.364 26.636h10.543V10.728h5.364v15.908h5.364V5.364H5.364z" fill="#fff"/>
    </symbol>
    <symbol id="trello" viewBox="0 0 128 128">
        <title>trello</title>
        <path fill="#23719F" d="M127 16.142c0-8.363-6.779-15.142-15.142-15.142h-95.716c-8.363 0-15.142 6.779-15.142 15.142v95.715c0 8.364 6.779 15.143 15.142 15.143h95.716c8.363 0 15.142-6.779 15.142-15.143v-95.715zm-69 83.398c0 3.807-3.286 6.46-7.093 6.46h-27.344c-3.807 0-6.563-2.653-6.563-6.46v-76.31c0-3.808 2.756-7.23 6.563-7.23h27.344c3.807 0 7.093 3.422 7.093 7.23v76.31zm55-66.456v31.886000000000003c0 3.807-2.936 7.03-6.744 7.03h-27.33c-3.808 0-6.926-3.224-6.926-7.03v-42.104c0-3.808 3.118-6.866 6.926-6.866h27.33c3.808 0 6.744 3.058 6.744 6.866v10.218z"></path>
    </symbol>
    <symbol id="sketch" viewBox="0 0 512 512">
        <title>sketch</title>
        <polygon style="fill:#FFD54F;" points="96,191.024 96,47.024 256,16.976 416,47.024 416,191.024 "/>
        <polygon style="fill:#FFECB3;" points="96,191.024 256,16.976 416,191.024 "/>
        <polygon style="fill:#FFA000;" points="0,191.024 256,495.024 512,191.024 "/>
        <polygon style="fill:#FFCA28;" points="96,191.024 256,495.024 416,191.024"/>
        <polygon style="fill:#FFC107;" points="0,191.024 96,47.024 96,191.024"/>
        <polygon style="fill:#FFC107;" points="416,47.024 416,191.024 512,191.024 "/>
    </symbol>
    <symbol id="webpack" viewBox="0 0 32 32">
        <title>webpack</title>
        <path d="M29.54 24.663L16.57 32v-5.713l8.08-4.446zm.888-.803V8.52l-4.744 2.742v9.862zm-27.966.803L15.43 32v-5.713L7.345 21.84zm-.888-.803V8.52l4.744 2.742v9.862zM2.13 7.524L15.43 0v5.522L6.84 10.25zm27.74 0L16.57 0v5.522l8.59 4.723z" fill="#8ed6fb"/>
        <path d="M15.43 25.237L7.456 20.85v-8.684l7.974 4.604zm1.14 0l7.975-4.383v-8.69L16.57 16.77zm-.57-8.8zm-8.004-5.275L16 6.763l8.004 4.4L16 15.783z" fill="#1c78c0"/>
    </symbol>
    <symbol id="jira" viewBox="0 0 42 42">
        <title>jira</title>
        <path fill="#2684ff" d="M20.172 27.858L13.314 21l6.858-6.858V0L.586 19.586a2 2 0 0 0 0 2.828L20.172 42s3-2 3-7a11.639 11.639 0 0 0-3-7.142z"/>
        <path fill="#1d78f2" d="M14.385 19.667l.131.131 5.656-5.656V0L9.571 10.6a20.2 20.2 0 0 0 4.814 9.067z"/>
        <path fill="#126ae5" d="M15.832 18.285l.1.1 4.242-4.242V0l-8.868 8.866a18.21 18.21 0 0 0 4.526 9.419z"/>
        <path fill="#0b60da" d="M20.172 14.142V0l-7 7a15.546 15.546 0 0 0 4.171 9.97z"/>
        <path fill="#0154ce" d="M15.172 7c0 4.746 3.407 8.371 3.585 8.556l1.415-1.414V0L15.35 4.822A13.161 13.161 0 0 0 15.172 7z"/>
        <path fill="#2482fd" d="M20.172 14.142L27.029 21l-6.857 6.858V42l19.585-19.586a2 2 0 0 0 0-2.828L20.172 0s-3 2-3 7a11.639 11.639 0 0 0 3 7.142z"/>
        <path fill="#1d78f2" d="M25.958 22.333l-.131-.131-5.655 5.656V42l10.6-10.6a20.2 20.2 0 0 0-4.814-9.067z"/>
        <path fill="#126ae5" d="M24.511 23.715l-.1-.1-4.241 4.242V42l8.866-8.866a18.216 18.216 0 0 0-4.525-9.419z"/>
        <path fill="#0b60da" d="M20.172 27.858V42l7-7A15.545 15.545 0 0 0 23 25.03z"/>
        <path fill="#0154ce" d="M25.172 35c0-4.746-3.407-8.371-3.586-8.556l-1.414 1.414V42l4.822-4.822A13.27 13.27 0 0 0 25.172 35z"/>
        <path fill="#2684ff" d="M20.172 27.858L13.314 21H2.172v3l18 18s3-2 3-7a11.639 11.639 0 0 0-3-7.142z"/>
    </symbol>
    <symbol id="pug" viewBox="0 0 64 64">
        <title>pug</title>
        <g transform="translate(-.094 -.824) scale(.49952)">
            <path d="M107.4 50.9c-.2-4.4.4-8.3-1.6-11.6-4.8-8.2-16.8-13-40.8-13v.7h-.5.5v-.7c-24 0-36.6 4.8-41.4 13.1-1.9 3.4-1.7 7.2-2 11.6-.2 3.5-1.8 7.2-1.1 11.2.8 5.2 1.1 10.4 1.9 15.2.6 3.9 6 7.2 6.5 10.9 1.4 10.2 12 14.9 36 14.9v.8h-.5.6v-.8c24 0 34.2-4.7 35.5-14.9.5-3.8 5.5-7 6.1-10.9.8-4.8 1.1-10 1.9-15.2.7-4-.9-7.8-1.1-11.3z" fill="#efcca3"/>
            <g fill="#ccac8d">
                <path d="M64.6 54.5c4.3.1 7.3 2.8 10.1 5.3 3.3 2.9 8.9 4.9 11.2 7.4s5.3 5 6.4 8.9 1.4 8.9 1.4 10.2.7 1 2.7 0c4.7-2.3 9.9-8.5 9.9-8.5-.6 3.9-5.7 7.4-6.2 11.1C98.9 99.1 89 104 64.5 104h-.1.6"/>
                <path d="M80.4 46.7c.9 3.1 4.1 13.6-2.1 10.1 0 0 2.6 1.5 4.2 7.2 1.7 5.7 5.8 6.4 5.8 6.4s6.7 1.3 11.7-3c4.2-3.6 4.9-10 3.1-14.9-1.8-4.8-5-6.3-9.7-7.3-4.7-1.1-14.1-2-13 1.5z"/>
            </g>
            <circle cx="92.3" cy="58.1" r="8.8"/>
            <circle cx="90" cy="54.2" fill="#fff" r="2.3"/>
            <path d="M78.9 57.7s7.9 5.4 12.2 10.7 4.2 6.3 4.2 6.3l-3.1 1.4s-4.4-8.3-9.8-11.4c-5.5-3.1-6.1-5.7-6.1-5.7z" fill="#efcca3"/>
            <path d="M64.9 54.5c-4.3.1-7.5 2.8-10.4 5.3-3.3 2.9-9.1 4.9-11.4 7.4s-5.4 5-6.5 8.9-1.5 8.9-1.5 10.2.2 1.4-2.7 0c-4.7-2.2-9.9-8.5-9.9-8.5.6 3.9 5.7 7.4 6.2 11.1C30.1 99.1 40 104 64.5 104h.5" fill="#ccac8d"/>
            <path d="M88.1 71.4C83.3 65.5 75.6 60 64.9 60h-.1c-10.7 0-18.4 5.5-23.2 11.4-5 6.1-4.6 8.5-4.6 14.3 0 21 7.4 15 12.3 17.6 5 2.5 10.2 1.7 15.5 1.7h.1c5.4 0 10.5.7 15.5-1.8 4.9-2.5 12.3 3.7 12.3-17.3.1-5.8.4-8.4-4.6-14.5z" fill="#56332b"/>
            <g fill="#442823">
                <path d="M64.4 65.2s-.7 9.7-2.1 11.6l2.6-.6z"/>
                <path d="M65.1 65.2s.7 9.7 2.1 11.6l-2.6-.6z"/>
            </g>
            <path d="M56.7 62.9c-1-2.3 2.6-6 8.3-6.1 5.7 0 9.3 3.7 8.3 6.1S68.7 66 65 66.1c-3.6-.1-7.3-.8-8.3-3.2z" fill="#56332b"/>
            <path d="M65 65.2c0-.4 3.4-.5 5.2-1.7 0 0-3.7 1.2-4.5.7-.8-.4-1-1.6-1-1.6s-.3 1.2-.9 1.6c-.7.4-4.9-.7-4.9-.7l5.6 1.7c0 .3-.1 1.3-.1 2l.4 9.2c.6.9.4-6.7.4-9.2z"/>
            <path d="M65.2 78.6c1.7 0 4.7 1.2 7.4 3.1-2.6-2.9-5.7-4.9-7.4-4.9-1.8 0-5.6 2.2-8.3 5.4 2.8-2.2 6.4-3.6 8.3-3.6z" fill="#7f4a41" stroke="#4d4d4d" stroke-miterlimit="10" stroke-width="4.159"/>
            <g fill="#442823">
                <path d="M64.5 96.3c-3.8 0-7.5-1.2-10.9-2.1-.7-.2-1.4.3-2.1.1-6.3-2-11.4-5.4-14.5-9.7v1c0 21 7.4 15.1 12.3 17.6 5 2.5 10.2 1.7 15.5 1.7h.1c5.4 0 10.5.7 15.5-1.8 4.9-2.5 12.3 3.6 12.3-17.4 0-.8 0-1.6.1-2.3-2.9 4.7-8.2 8.4-14.8 10.6-.6.2-2-.3-2.6-.2-3.6 1.2-6.8 2.5-10.9 2.5z"/>
                <path d="M55 85s-2.5 7.5-.8 10.8l-2.3-1s1.7-7.6 3.1-9.8zm19.8 0s2.5 7.5.8 10.8l2.3-1s-1.8-7.6-3.1-9.8z"/>
            </g>
            <path d="M48.6 46.7c-.9 3.1-4.1 13.6 2.1 10.1 0 0-2.6 1.5-4.2 7.2s-5.8 6.4-5.8 6.4-6.7 1.3-11.7-3c-4.2-3.6-4.9-10-3.1-14.9s5-6.3 9.7-7.3c4.7-1.1 14-2 13 1.5z" fill="#ccac8d"/>
            <path d="M64.9 76.8c2.7 0 11.1 5.8 11.2 12.9v-.4c0-7.4-6.8-13.3-11.2-13.3s-11.2 6-11.2 13.3v.4c.1-7.1 8.5-12.9 11.2-12.9z"/>
            <g fill="#331712">
                <ellipse cx="66.7" cy="61.5" rx=".8" ry="1.5" transform="rotate(-14.465 66.712 61.468)"/>
                <ellipse cx="62.4" cy="61.5" rx=".8" ry="1.5" transform="rotate(17.235 62.371 61.462)"/>
            </g>
            <circle cx="37.2" cy="58.1" r="8.8"/>
            <circle cx="39.5" cy="54.2" fill="#fff" r="2.3"/>
            <path d="M67.5 58.2c0-.1-2.3 1-2.9 1.1-.6-.1-2.9-1.2-2.9-1.1z" fill="#7f4a41" stroke="#4d4d4d" stroke-miterlimit="10" stroke-width="4.159"/>
            <path d="M50 57.7s-7.9 5.4-12.2 10.7-4.2 6.3-4.2 6.3l3.1 1.4s4.4-8.3 9.8-11.4 6.1-5.7 6.1-5.7z" fill="#efcca3"/>
            <g fill="#ccac8d">
                <path d="M32.7 41.7S30 49.1 24 52.2c0 0 9.4-1.1 8.7-10.5zm63.1 0s2.7 7.4 8.7 10.5c0 0-9.4-1.1-8.7-10.5zM78.7 55.5s-5.9-6.2-13.8-6.4h.2c-8 .2-13.8 6.4-13.8 6.4 6.9-4.8 12.8-4.7 13.8-4.7-.1 0 6.7-.1 13.6 4.7zm-6.9-13s-3-4.2-7-4.3h.2c-3 .1-6.9 4.3-6.9 4.3 3.4-3.3 6.9-3.2 6.9-3.2s3.3-.1 6.8 3.2zM37.2 73.2s-4.7 2.3-8.1.9H29c-3-1.7-4.5-6.8-4.5-6.8s3 9 12.7 5.9zm54.8 0s4.7 2.3 8.1.9c4-1.7 4.6-6.8 4.6-6.8s-3 9-12.7 5.9zm-49.4-32c2.6-.5 6.9-.6 10.3.5 4.3 1.5.8 7 1.7 7.3s2.1-3.8 10.1-3.4c8.1.4 9 4 10.1 3.4s-1.1-10 11-7.8c0 0-12.7-3.4-12.1 5.8 0 0-7.3-5.6-17.5-.6.1 0 2.7-8.6-13.6-5.2zm44.3 0c.2 0 .3.1.4.1s-.1-.1-.4-.1z"/>
                <path d="M39.1 28.9S28.3 42.5 26.7 47.7c-1.6 5.3-2.8 27-4.2 30.1l-5-21.4 9.2-22.3zm50.8 0s10.8 13.6 12.4 18.8c1.6 5.3 2.8 27 4.2 30.1l5-21.4-9.2-22.3z"/>
            </g>
            <path d="M89.4 28.9s11.6 9.7 15 20.9 2 24.8 4.6 26.5c3.7 2.4 7.9-11.9 9.3-13.4 2.2-2.4 9.5-8.5 10-9.6s-14.8-17.8-21.5-21.1c-8.1-3.8-18.1-4.1-17.4-3.3z" fill="#56332b"/>
            <path d="M99.3 34.9s13.7 17.5 13.5 39.3l5.5-11.2c-.1 0-4.9-14.3-19-28.1z" fill="#442823"/>
            <path d="M39.1 28.9s-11.6 9.7-15 20.9-2 24.8-4.6 26.5c-3.7 2.4-7.9-11.9-9.3-13.4C8 60.5.7 54.4.2 53.3S15 35.5 21.7 32.2c8.1-3.8 18.1-4.1 17.4-3.3z" fill="#56332b"/>
            <path d="M29.2 34.9S15.5 52.4 15.7 74.2L10.3 63s4.8-14.3 18.9-28.1z" fill="#442823"/>
            <path d="M21.8 74.6s1 5.4 2.6 7.1.5-1.3.5-1.3-1.7-.9-1.4-7.8-1.7 2-1.7 2zm85.3 0s-1 5.4-2.6 7.1-.5-1.3-.5-1.3 1.7-.9 1.4-7.8 1.7 2 1.7 2z" fill="#ccac8d"/>
            <g fill="#442823">
                <circle cx="54.5" cy="70.5" r=".8"/>
                <circle cx="49.9" cy="75.3" r=".8"/>
                <circle cx="48.4" cy="70.5" r=".8"/>
                <circle cx="74" cy="70.5" r=".8"/>
                <circle cx="78.6" cy="75.3" r=".8"/>
                <circle cx="80.1" cy="70.5" r=".8"/>
            </g>
        </g>
    </symbol>
</svg>